<svg fill="#757575" xmlns="http://www.w3.org/2000/svg"  width="1024" height="1024" viewBox="0 0 1024 1024">
  <path d="M861.090909 116.363636l-698.181818 0C98.629818 116.363636 46.545455 168.448 46.545455 232.727273l0 558.545455c0 64.279273 52.084364 116.363636 116.363636 116.363636l698.181818 0c64.279273 0 116.363636-52.084364 116.363636-116.363636L977.454545 232.727273C977.454545 168.448 925.370182 116.363636 861.090909 116.363636zM930.909091 791.272727c0 38.539636-31.278545 69.818182-69.818182 69.818182l-698.181818 0C124.369455 861.090909 93.090909 829.812364 93.090909 791.272727L93.090909 232.727273c0-38.539636 31.278545-69.818182 69.818182-69.818182l698.181818 0C899.630545 162.909091 930.909091 194.187636 930.909091 232.727273L930.909091 791.272727zM186.181818 698.181818l256 0 0-46.545455L186.181818 651.636364 186.181818 698.181818zM186.181818 535.272727l256 0 0-46.545455L186.181818 488.727273 186.181818 535.272727zM186.181818 372.363636l256 0L442.181818 325.818182 186.181818 325.818182 186.181818 372.363636zM749.474909 530.850909C774.795636 509.486545 791.272727 477.928727 791.272727 442.181818 791.272727 377.902545 739.188364 325.818182 674.909091 325.818182 610.629818 325.818182 558.545455 377.902545 558.545455 442.181818c0 35.746909 16.477091 67.304727 41.797818 88.669091C548.072727 557.986909 512 611.979636 512 674.909091c0 12.846545 10.426182 23.272727 23.272727 23.272727 12.846545 0 23.272727-10.426182 23.272727-23.272727 0-64.279273 52.084364-116.363636 116.363636-116.363636 64.279273 0 116.363636 52.084364 116.363636 116.363636 0 12.846545 10.426182 23.272727 23.272727 23.272727 12.846545 0 23.272727-10.426182 23.272727-23.272727C837.818182 611.979636 801.745455 557.986909 749.474909 530.850909zM674.909091 512c-38.539636 0-69.818182-31.278545-69.818182-69.818182C605.090909 403.642182 636.369455 372.363636 674.909091 372.363636 713.448727 372.363636 744.727273 403.642182 744.727273 442.181818 744.727273 480.721455 713.448727 512 674.909091 512z" />
</svg>
