<svg fill="#757575" xmlns="http://www.w3.org/2000/svg"  width="1024" height="1024" viewBox="0 0 1024 1024">
  <path d="M791.272727 954.181818 209.454545 954.181818c-51.386182 0-93.090909-41.658182-93.090909-93.090909L116.363636 325.911273 116.037818 325.585455 395.636364 46.731636 395.636364 46.545455l0.186182 0 0.372364-0.372364L396.520727 46.545455 791.272727 46.545455c51.432727 0 93.090909 41.704727 93.090909 93.090909l0 721.454545C884.363636 912.523636 842.705455 954.181818 791.272727 954.181818zM395.636364 112.453818 181.713455 325.818182 349.090909 325.818182c25.693091 0 46.545455-20.852364 46.545455-46.545455L395.636364 112.453818zM837.818182 139.636364c0-25.693091-20.852364-46.545455-46.545455-46.545455L442.181818 93.090909l0 186.181818c0 51.386182-41.658182 93.090909-93.090909 93.090909l-186.181818 0 0 488.727273c0 25.693091 20.852364 46.545455 46.545455 46.545455L791.272727 907.636364c25.693091 0 46.545455-20.852364 46.545455-46.545455L837.818182 139.636364zM721.454545 768 279.272727 768c-12.846545 0-23.272727-10.426182-23.272727-23.272727 0-12.846545 10.426182-23.272727 23.272727-23.272727l442.181818 0c12.846545 0 23.272727 10.426182 23.272727 23.272727C744.727273 757.573818 734.301091 768 721.454545 768zM721.454545 605.090909 279.272727 605.090909c-12.846545 0-23.272727-10.426182-23.272727-23.272727C256 568.971636 266.426182 558.545455 279.272727 558.545455l442.181818 0c12.846545 0 23.272727 10.426182 23.272727 23.272727C744.727273 594.664727 734.301091 605.090909 721.454545 605.090909zM721.454545 442.181818 279.272727 442.181818C266.426182 442.181818 256 431.755636 256 418.909091c0-12.846545 10.426182-23.272727 23.272727-23.272727l442.181818 0C734.301091 395.636364 744.727273 406.062545 744.727273 418.909091 744.727273 431.755636 734.301091 442.181818 721.454545 442.181818zM721.454545 279.272727 512 279.272727c-12.846545 0-23.272727-10.426182-23.272727-23.272727C488.727273 243.153455 499.153455 232.727273 512 232.727273l209.454545 0C734.301091 232.727273 744.727273 243.153455 744.727273 256 744.727273 268.846545 734.301091 279.272727 721.454545 279.272727z" />
</svg>
