<svg fill="#757575" xmlns="http://www.w3.org/2000/svg"  width="1024" height="1024" viewBox="0 0 1024 1024">
  <path d="M934.925289 412.485519c24.201192-16.065907 24.877597-28.350698 24.877597-49.756217 0-29.042453 0-149.262512 0-149.262512 0-41.21775-33.416064-74.633814-74.633814-74.633814L138.829905 138.832975c-41.21775 0-74.633814 33.416064-74.633814 74.633814 0 0 0 137.40137 0 149.262512 0 22.295795 1.552356 37.167504 24.877597 49.756217 33.988092 15.827477 74.633814 47.805796 74.633814 99.516528 0 67.106374-42.182728 88.938612-73.166393 99.402941-21.807678 13.647835-26.346041 36.122709-26.346041 49.860595 0 11.846816 0 149.267629 0 149.267629 0 41.222867 33.416064 74.633814 74.633814 74.633814l746.339166 0c41.21775 0 74.633814-33.410947 74.633814-74.633814 0 0 0-99.507318 0-149.267629 0-27.171849-6.239098-35.783994-24.877597-49.756217-54.338582-28.013007-74.633814-52.949956-74.633814-99.512435C860.291474 465.435475 879.298364 442.264752 934.925289 412.485519zM910.047692 652.130528l0 133.530203c0 27.474748-22.275329 49.756217-49.756217 49.756217L163.707502 835.416947c-27.479865 0-49.756217-22.280446-49.756217-49.756217L113.951285 652.130528c57.846476-20.564361 99.512435-75.231425 99.512435-140.127458 0-64.902172-41.665958-119.568213-99.512435-140.127458L113.951285 238.344387c0-27.479865 22.275329-49.756217 49.756217-49.756217l696.583972 0c27.479865 0 49.756217 22.275329 49.756217 49.756217l0 133.530203c-57.84136 20.559245-99.512435 75.226309-99.512435 140.127458C810.535257 576.899102 852.206332 631.566166 910.047692 652.130528zM648.828318 462.241736l-93.919043 0 101.94995-109.537765c4.408403-4.816702 4.408403-12.632715 0-17.454534l-15.956414-17.454534c-4.408403-4.821819-11.54801-4.821819-15.956414 0l-113.065102 121.474632L398.770146 317.754994c-4.373611-4.78191-11.464099-4.78191-15.832594 0l-15.832594 17.320481c-4.373611 4.78191-4.373611 12.533454 0 17.315364l102.253872 109.850897-94.188172 0c-6.871501 0-12.43931 5.572926-12.43931 12.43931l0 24.882714c0 6.871501 5.567809 12.43931 12.43931 12.43931l111.950721 0 0 49.756217L375.170658 561.759287c-6.871501 0-12.43931 5.567809-12.43931 12.43931l0 24.877597c0 6.866385 5.567809 12.43931 12.43931 12.43931l111.950721 0 0 87.073124c0 6.866385 5.567809 12.43931 12.43931 12.43931l24.877597 0c6.871501 0 12.43931-5.572926 12.43931-12.43931l0-87.073124 111.950721 0c6.871501 0 12.43931-5.572926 12.43931-12.43931l0-24.877597c0-6.871501-5.567809-12.43931-12.43931-12.43931L536.877597 561.759287l0-49.756217 111.950721 0c6.871501 0 12.43931-5.567809 12.43931-12.43931l0-24.882714C661.267629 467.813638 655.69982 462.241736 648.828318 462.241736z" />
</svg>
