<svg fill="#757575" xmlns="http://www.w3.org/2000/svg"  width="1024" height="1024" viewBox="0 0 1024 1024">
  <path d="M512 325.818182c-115.665455 0-209.454545 93.789091-209.454545 209.454545 0 115.665455 93.789091 209.454545 209.454545 209.454545s209.454545-93.789091 209.454545-209.454545C721.454545 419.607273 627.665455 325.818182 512 325.818182zM512 698.181818c-89.972364 0-162.909091-72.936727-162.909091-162.909091C349.090909 445.300364 422.027636 372.363636 512 372.363636s162.909091 72.936727 162.909091 162.909091C674.909091 625.245091 601.972364 698.181818 512 698.181818zM907.636364 418.909091l-66.746182 0c-4.142545-11.589818-8.797091-22.900364-14.056727-33.931636l47.197091-47.197091c18.199273-18.199273 18.199273-47.662545 0-65.815273l-98.722909-98.722909c-18.199273-18.199273-47.662545-18.199273-65.815273 0l-47.429818 47.429818c-10.938182-5.213091-22.109091-10.100364-33.652364-14.196364L628.410182 139.636364c0-25.693091-20.852364-46.545455-46.545455-46.545455l-139.636364 0c-25.693091 0-46.545455 20.852364-46.545455 46.545455l0 66.839273C384.093091 210.571636 372.875636 215.365818 361.890909 220.625455L314.507636 173.242182c-18.152727-18.199273-47.662545-18.199273-65.815273 0L149.969455 271.965091c-18.199273 18.199273-18.199273 47.662545 0 65.815273l47.290182 47.290182C192 396.055273 187.159273 407.319273 183.063273 418.909091L116.363636 418.909091c-25.693091 0-46.545455 20.852364-46.545455 46.545455l0 139.636364c0 25.693091 20.852364 46.545455 46.545455 46.545455l66.746182 0c4.142545 11.589818 8.797091 22.900364 14.056727 33.885091l-47.197091 47.197091c-18.199273 18.152727-18.199273 47.662545 0 65.815273l98.722909 98.722909c18.199273 18.199273 47.662545 18.199273 65.815273 0l47.429818-47.429818c10.938182 5.213091 22.109091 10.100364 33.652364 14.196364L395.589818 930.909091c0 25.693091 20.852364 46.545455 46.545455 46.545455l139.636364 0c25.693091 0 46.545455-20.852364 46.545455-46.545455l0-66.746182c11.589818-4.142545 22.900364-8.797091 33.885091-14.056727l47.197091 47.197091c18.199273 18.199273 47.662545 18.199273 65.815273 0l98.722909-98.722909c18.199273-18.199273 18.199273-47.662545 0-65.815273l-47.429818-47.429818c5.213091-10.938182 10.100364-22.109091 14.196364-33.652364L907.636364 651.682909c25.693091 0 46.545455-20.852364 46.545455-46.545455l0-139.636364C954.181818 439.761455 933.329455 418.909091 907.636364 418.909091zM907.636364 581.818182c0 12.846545-10.426182 23.272727-23.272727 23.272727l-78.242909 0c-7.540364 31.837091-20.107636 61.672727-36.817455 88.762182l55.342545 55.389091c9.076364 9.076364 9.076364 23.831273 0 32.907636l-65.815273 65.815273c-9.076364 9.076364-23.831273 9.076364-32.907636 0l-55.342545-55.342545c-27.089455 16.709818-56.925091 29.277091-88.762182 36.817455L581.818182 907.636364c0 12.846545-10.426182 23.272727-23.272727 23.272727l-93.090909 0c-12.846545 0-23.272727-10.426182-23.272727-23.272727l0-78.242909c-31.837091-7.540364-61.672727-20.107636-88.762182-36.817455l-55.342545 55.342545c-9.076364 9.076364-23.831273 9.076364-32.907636 0l-65.815273-65.815273c-9.076364-9.076364-9.076364-23.831273 0-32.907636l55.342545-55.389091C237.986909 666.763636 225.419636 636.928 217.879273 605.090909L139.636364 605.090909c-12.846545 0-23.272727-10.426182-23.272727-23.272727l0-93.090909C116.363636 475.880727 126.789818 465.454545 139.636364 465.454545l78.242909 0c7.540364-31.837091 20.107636-61.672727 36.817455-88.762182L199.307636 321.349818c-9.076364-9.076364-9.076364-23.831273 0-32.907636l65.815273-65.815273c9.076364-9.076364 23.831273-9.076364 32.907636 0l55.342545 55.342545C380.509091 261.259636 410.344727 248.692364 442.181818 241.152L442.181818 162.909091C442.181818 150.062545 452.608 139.636364 465.454545 139.636364l93.090909 0c12.846545 0 23.272727 10.426182 23.272727 23.272727l0 78.242909c31.837091 7.540364 61.672727 20.107636 88.762182 36.817455l55.342545-55.342545c9.076364-9.076364 23.831273-9.076364 32.907636 0l65.815273 65.815273c9.076364 9.076364 9.076364 23.831273 0 32.907636l-55.342545 55.342545c16.709818 27.089455 29.277091 56.878545 36.817455 88.762182L884.363636 465.454545c12.846545 0 23.272727 10.426182 23.272727 23.272727L907.636364 581.818182z" />
</svg>
