<svg fill="#757575" xmlns="http://www.w3.org/2000/svg"  width="1024" height="1024" viewBox="0 0 1024 1024">
  <path d="M513.46384 60.225663c-248.291946 0-449.584462 201.299679-449.584462 449.625394 0 248.296039 201.292516 449.594695 449.584462 449.594695 248.279666 0 449.635627-201.299679 449.635627-449.594695C963.098443 261.525342 761.743506 60.225663 513.46384 60.225663zM513.58152 917.673369c-225.165226 0-407.698492-182.53736-407.698492-407.706679S288.416294 102.254895 513.58152 102.254895c225.171366 0 407.703609 182.541453 407.703609 407.710772S738.752886 917.673369 513.58152 917.673369z" />
<path d="M553.293987 303.978223c-4.52506-34.514071-39.013549-32.225959-39.013549-32.225959s-37.906332-3.054569-40.596604 32.423457c0 0-8.162914 181.770903 15.905248 294.369378 0 0 3.939729 15.755846 24.691355 16.296151l0-0.275269c19.360953-1.277086 23.108301-16.22145 23.108301-16.22145C561.4569 485.753219 553.293987 303.978223 553.293987 303.978223z" />
<path d="M513.489422 654.867872c25.718755 0 46.560432 20.844747 46.560432 46.556339 0 25.719778-20.841677 46.561455-46.560432 46.561455s-46.560432-20.841677-46.560432-46.561455C466.92899 675.712619 487.770667 654.867872 513.489422 654.867872z" />
</svg>
