<svg fill="#757575" xmlns="http://www.w3.org/2000/svg"  width="1024" height="1024" viewBox="0 0 1024 1024">
  <path d="M241.782695 484.978577 79.653131 484.978577l0 54.042847 162.130587 0L241.783719 484.978577zM241.782695 322.847989 79.653131 322.847989l0 54.042847 162.130587 0L241.783719 322.847989zM836.260152 79.653131 241.782695 79.653131c-59.696614 0-108.086717 48.393173-108.086717 108.086717l0 27.021423 54.042847 0c0-44.772716 36.292578-81.065294 81.065294-81.065294l540.433586 0c44.769646 0 81.065294 36.292578 81.065294 81.065294l0 594.477456c0 44.769646-36.295648 81.065294-81.065294 81.065294L268.805142 890.304022c-44.772716 0-81.065294-36.295648-81.065294-81.065294L133.695978 809.238728l0 27.021423c0 59.696614 48.390104 108.086717 108.086717 108.086717l594.477456 0c59.696614 0 108.086717-48.390104 108.086717-108.086717l0-648.520303C944.346869 128.046305 895.956765 79.653131 836.260152 79.653131zM349.869413 701.152011l54.042847 0c0-74.617441 60.490699-135.108141 135.108141-135.108141s135.108141 60.490699 135.108141 135.108141l54.042847 0c0-72.761164-41.09086-135.915529-101.325733-167.55411 28.939099-24.780383 47.282886-61.57745 47.282886-102.662171 0-74.617441-60.490699-135.108141-135.108141-135.108141S403.913283 356.317265 403.913283 430.934706c0 41.085744 18.343787 77.882811 47.282886 102.662171C390.960273 565.235458 349.869413 628.389824 349.869413 701.152011zM539.021423 349.869413c44.769646 0 81.065294 36.295648 81.065294 81.065294 0 44.772716-36.295648 81.065294-81.065294 81.065294s-81.065294-36.292578-81.065294-81.065294C457.95613 386.16506 494.251777 349.869413 539.021423 349.869413zM241.782695 647.108141 79.653131 647.108141l0 54.042847 162.130587 0L241.783719 647.108141z" />
</svg>
