<svg fill="#757575" xmlns="http://www.w3.org/2000/svg"  width="1024" height="1024" viewBox="0 0 1024 1024">
  <path d="M679.741887 512.9967c63.883983-47.029106 105.58678-122.491799 105.58678-207.717855 0-142.309146-115.78812-258.094196-258.103406-258.094196-142.31324 0-258.103406 115.784026-258.103406 258.094196 0 86.268806 42.706661 162.577772 107.916848 209.453383-0.031722 0.013303-0.063445 0.025583-0.096191 0.038886C79.481727 621.390409 79.481727 942.749488 79.481727 942.749488l63.956637 0c0 0 33.171494-383.761314 383.786896-383.761314 351.373673 0 383.692752 383.761314 383.692752 383.761314l63.956637 0c0 0 0-320.679603-294.861588-429.650457C679.921989 513.065262 679.831938 513.030469 679.741887 512.9967L679.741887 512.9967zM333.085656 305.278845c0-107.053178 87.091544-194.129372 194.140629-194.129372 107.047038 0 194.140629 87.076194 194.140629 194.129372 0 107.031689-87.091544 194.107883-194.140629 194.107883S333.085656 412.310533 333.085656 305.278845L333.085656 305.278845z" />
</svg>
