<svg fill="#757575" xmlns="http://www.w3.org/2000/svg"  width="1024" height="1024" viewBox="0 0 1024 1024">
  <path d="M384 977.152c-20.5312 0-39.8336-7.9872-54.3232-22.4256l-260.4032-260.4032c-14.4896-14.4896-22.4256-33.7408-22.4256-54.3232s7.9872-39.8336 22.4256-54.3232l439.6032-439.6032c24.9344-24.9344 70.2464-43.7248 105.5232-43.7248l230.4 0c42.3424 0 76.8 34.4576 76.8 76.8l0 230.4c0 35.2256-18.7904 80.5888-43.6736 105.5232l-439.6032 439.6032c-14.4896 14.4896-33.7408 22.4256-54.3232 22.4256zM614.4 153.6c-21.248 0-54.272 13.6704-69.2736 28.7232l-439.6032 439.6032c-4.8128 4.8128-7.424 11.2128-7.424 18.1248s2.6624 13.312 7.424 18.0736l260.4032 260.4032c4.8128 4.8128 11.2128 7.424 18.1248 7.424s13.312-2.6624 18.1248-7.424l439.6032-439.6032c15.0016-15.0016 28.7232-48.0768 28.7232-69.3248l0-230.4c0-14.1312-11.4688-25.6-25.6-25.6l-230.4 0z" />
<path d="M742.4 358.4c-42.3424 0-76.8-34.4576-76.8-76.8s34.4576-76.8 76.8-76.8 76.8 34.4576 76.8 76.8-34.4576 76.8-76.8 76.8zM742.4 256c-14.1312 0-25.6 11.4688-25.6 25.6s11.4688 25.6 25.6 25.6 25.6-11.4688 25.6-25.6-11.4688-25.6-25.6-25.6z" />
</svg>
