<svg width="1024" height="1024" xmlns="http://www.w3.org/2000/svg" fill="#000">
 <g>
  <path d="m216.695715,390.975999c22.663741,0 43.019938,9.179113 57.792875,24.065103c14.793364,14.700034 24.033406,35.190415 24.033406,57.885149c0,22.570763 -9.240042,42.97838 -24.033406,57.740751c-14.772585,14.834571 -35.129134,23.941485 -57.792875,23.941485c-22.580977,0 -43.081219,-9.106562 -57.936569,-23.941485c-14.772585,-14.762372 -23.879147,-35.169988 -23.879147,-57.740751c0,-22.694382 9.10621,-43.185115 23.879147,-57.885149c14.854998,-14.88599 35.355239,-24.065103 57.936569,-24.065103l0,0z"/>
  <path d="m750.644,270.161l0,0c43.875,0 84.621,18.603 113.901,47.443c29.074,29.163 47.414,69.734 47.414,113.961c0,44.84 -18.34,84.826 -47.414,114.193c-29.105,29.397 -69.528,47.414 -113.901,47.414c-44.959,0 -85.119,-18.017 -114.282,-47.414l-1.286,-1.522c-28.695,-29.015 -46.129,-68.561 -46.129,-112.671c0,-44.227 18.105,-84.798 47.415,-113.961l1.551,-1.813c29.278,-27.991 68.65,-45.63 112.731,-45.63l0,0z"/>
  <path d="m450.540618,501.265999l0,0c33.655777,0 64.588994,14.027043 86.728245,36.42844l0.365931,0.210254l0.419612,0.522502c21.747374,22.269877 35.407592,52.732484 35.407592,86.570779c0,33.655777 -13.84363,64.482526 -35.827204,86.755086l-0.365931,0l-0.418718,0.70681c-22.192933,22.088253 -52.864004,35.538217 -86.309528,35.538217c-34.17828,0 -64.95403,-13.842736 -87.30443,-36.245027l0,0l-0.576184,-0.522502c-21.930787,-22.088253 -35.591004,-52.761114 -35.591004,-86.232584c0,-33.8374 13.817684,-64.823405 36.167189,-87.093281l0,-0.210254l0.628971,-0.314038c22.191143,-22.298507 52.863109,-36.114402 86.675458,-36.114402l0,0z"/>
 </g>
</svg>