<svg width="1024" height="1024" xmlns="http://www.w3.org/2000/svg" fill="#f5f5f5"><path d="M235.6 928.1c-5.2 0-10.5-0.3-15.8-0.9-65.3-7.2-118-59.9-125.2-125.2-4.5-40.4 8.4-80.9 35.4-111 27-30.1 65.6-47.4 105.9-47.4 13.8 0 25 11.2 25 25s-11.2 25-25 25c-26.2 0-51.2 11.2-68.7 30.7-17.7 19.8-25.9 45.4-22.9 72.1 4.7 42.3 38.7 76.3 81 81 26.7 2.9 52.3-5.2 72.1-22.9 19.5-17.5 30.7-42.5 30.7-68.7V292c0-54.6 36.9-102.4 89.7-116.3l297.9-78.3c36.3-9.5 74.2-1.9 104 21.1 29.7 22.9 46.8 57.6 46.8 95.2v470.2c0 79.1-62.6 144.6-139.5 146.1-38.5 0.7-74.8-13.8-102.3-40.7-27.5-27-42.6-63-42.6-101.5 0-78.4 63.8-142.2 142.2-142.2 13.8 0 25 11.2 25 25s-11.2 25-25 25c-50.8 0-92.2 41.4-92.2 92.2 0 24.9 9.8 48.3 27.6 65.8s41.4 26.9 66.3 26.4c49.9-0.9 90.5-44 90.5-96.1V213.7c0-21.9-10-42.2-27.3-55.6-17.4-13.4-39.5-17.9-60.7-12.3l-297.9 78.3c-30.8 8.1-52.4 36-52.4 67.9v493.9c0 40.4-17.3 79-47.4 105.9-26.2 23.5-60.2 36.3-95.2 36.3z" p-id="1517"></path></svg>