<svg width="1024" height="1024" xmlns="http://www.w3.org/2000/svg" fill="#000"><path d="M792.333 144.667C740.959 93.293 672.654 65 600 65h-0.006c-17.667 0.003-31.99 14.326-31.994 31.994V568a238.939 238.939 0 0 0-3.951-4.048C520.229 520.132 461.97 496 400 496s-120.229 24.132-164.049 67.951S168 666.03 168 728s24.132 120.23 67.951 164.049S338.03 960 400 960s120.229-24.132 164.049-67.951S632 789.97 632 728c0-0.905-0.022-1.806-0.033-2.709 0.018-0.429 0.033-0.858 0.033-1.291V131.462C731.554 146.9 808 233.188 808 337c0 17.673 14.327 32 32 32s32-14.327 32-32c0-72.654-28.293-140.959-79.667-192.333zM400 896c-92.636 0-168-75.364-168-168s75.364-168 168-168 168 75.364 168 168-75.364 168-168 168z"></path></svg>