<svg width="1024" height="1024" xmlns="http://www.w3.org/2000/svg" fill="#000"><path d="M844.214857 490.374095c-57.295238 57.027048-104.17981 8.704-65.584762-33.377524l128.999619-200.996571c-202.020571-3.779048-321.438476 71.533714-372.370285 139.654095-37.083429 49.761524-59.343238 165.814857-66.852572 196.534857-6.290286 25.819429-27.111619 42.983619-52.906667 39.107048-27.37981-6.680381-42.349714-48.64-35.669333-75.946667 1.29219-5.290667 28.574476-129.901714 85.625905-206.238476 50.127238-67.193905 149.26019-153.136762 377.685333-164.815238L692.419048 91.062857c-23.405714-15.701333-37.61981-41.496381-12.653715-72.508952 15.798857-23.186286 45.763048-5.290667 69.046857 10.361905l251.148191 158.549333a50.907429 50.907429 0 0 1 13.726476 70.631619l-169.472 232.277333z m62.464-234.179047c-2.169905 0.390095-6.875429 1.26781 0 0z m0.950857-0.195048l-0.950857 0.195048a21.089524 21.089524 0 0 0 0.950857-0.195048zM512 65.389714C265.728 65.389714 65.389714 265.728 65.389714 512S265.728 958.610286 512 958.610286 958.610286 758.272 958.610286 512a32.670476 32.670476 0 0 1 65.365333 0c0 282.307048-229.668571 511.975619-511.975619 511.975619C229.692952 1023.975619 0.024381 794.307048 0.024381 512 0.024381 229.692952 229.692952 0.024381 512 0.024381a32.670476 32.670476 0 1 1 0 65.365333z"></path></svg>