<svg fill="#757575" xmlns="http://www.w3.org/2000/svg"  width="1024" height="1024" viewBox="0 0 1024 1024">
  <path d="M819.3823 448.1659c-16.0901 0-27.947 13.058-27.947 29.1482v356.57011200000005c0 38.3539-29.6376 70.9417-67.9096 70.9417h-520.00768c-38.272 0-82.7709-32.5878-82.7709-70.9417V312.09984c0-38.3805 44.5-79.275 82.7709-79.275h297.237504c16.0901 0 29.0662-11.9101 29.0662-28.0003 0-16.1178-12.9761-28.0003-29.0662-28.0003H203.517952c-76.4334 0-138.6619 58.5134-138.6619 135.2745v521.78432c0 76.7345 62.2285 126.9422 138.6619 126.9422h520.00768c76.4887 0 123.8016-50.2077 123.8016-126.9422V477.31404799999996C847.3272 461.2239 835.4447 448.1659 819.3823 448.1659zM933.9494 131.9158l-42.5871-42.6957c-32.3983-32.5079-89.3266-32.5079-121.6983 0l-80.4485 94.7354L260.4739 595.159v10.027008l-0.3277 1.7203-53.9249 183.1608 39.5827 35.4028 172.9987-61.1082 2.1852 0.4639h8.495104l409.9758-430.0534 94.4896-77.3079C967.4957 223.8382 967.4957 165.5982 933.9494 131.9158zM282.3823 749.8281l25.1863-80.3645 50.3183 50.4801L282.3823 749.8281zM409.0788 689.8954l-74.0844-74.2738 383.2852-382.0308 71.7066 71.9258L409.0788 689.8954zM893.3837 213.3217l-57.1197 57.257-83.1529-83.4263 57.0931-57.257c5.4077-5.3811 12.5932-8.3589 20.2957-8.3589 7.7036 0 14.9146 2.9778 20.2967 8.3589l42.5329 42.6967C904.5565 183.8459 904.5565 202.0936 893.3837 213.3217z"/>
</svg>
