<svg fill="#757575" xmlns="http://www.w3.org/2000/svg"  width="1024" height="1024" viewBox="0 0 1024 1024">
  <path d="M215.467 468.324c0 41.419-33.546 75.038-75.001 75.038-41.383 0-74.999-33.618-74.999-75.038 0-41.381 33.616-74.962 74.999-74.962C181.921 393.362 215.467 426.943 215.467 468.324z" />
<path d="M587.181 468.894c0 41.419-33.547 75.037-75.004 75.037-41.38 0-74.999-33.618-74.999-75.036 0-41.381 33.619-74.964 74.999-74.964C553.634 393.931 587.181 427.513 587.181 468.894z" />
<path d="M958.893 468.323c0 41.421-33.623 75.039-75.011 75.039-41.455 0-74.99-33.618-74.99-75.039 0-41.382 33.535-74.961 74.99-74.961C925.269 393.362 958.893 426.941 958.893 468.323z" />
</svg>
