<svg fill="#757575" xmlns="http://www.w3.org/2000/svg"  width="1024" height="1024" viewBox="0 0 1024 1024">
  <path d="M978.013091 339.735273l-432.872727-315.857455c-8.843636-9.309091-23.598545-9.681455-32.907636-0.837818C512.139636 23.133091 512.093091 23.272727 512 23.412364c-0.093091-0.093091-0.139636-0.279273-0.279273-0.372364-9.309091-8.843636-24.064-8.471273-32.907636 0.837818l-432.872727 315.857455C37.236364 348.904727 37.562182 363.333818 46.545455 372.224L46.545455 884.363636c0 51.386182 41.658182 93.090909 93.090909 93.090909l744.727273 0c51.432727 0 93.090909-41.658182 93.090909-93.090909L977.454545 372.224C986.437818 363.333818 986.763636 348.904727 978.013091 339.735273zM930.909091 861.090909c0 38.539636-31.278545 69.818182-69.818182 69.818182l-698.181818 0C124.369455 930.909091 93.090909 899.630545 93.090909 861.090909L93.090909 362.030545l418.909091-305.664 418.909091 305.664L930.909091 861.090909zM479.092364 581.12 211.502545 395.636364 135.726545 395.636364l343.365818 251.345455c18.199273 18.199273 47.662545 18.199273 65.815273 0l343.365818-251.345455-75.776 0-267.589818 185.483636C526.754909 599.319273 497.245091 599.319273 479.092364 581.12zM313.576727 689.105455l-148.107636 148.107636c-9.076364 9.076364-9.076364 23.831273 0 32.907636 9.076364 9.076364 23.831273 9.076364 32.907636 0l148.107636-148.107636c9.076364-9.076364 9.076364-23.831273 0-32.907636C337.408 680.029091 322.699636 680.029091 313.576727 689.105455zM710.423273 689.105455c-9.076364-9.076364-23.831273-9.076364-32.907636 0-9.076364 9.076364-9.076364 23.831273 0 32.907636l148.107636 148.107636c9.076364 9.076364 23.831273 9.076364 32.907636 0 9.076364-9.076364 9.076364-23.831273 0-32.907636L710.423273 689.105455z" />
</svg>
