<svg fill="#757575" xmlns="http://www.w3.org/2000/svg"  width="1024" height="1024" viewBox="0 0 1024 1024">
  <path d="M513.550821 60.225663c-248.290923 0-449.579345 201.299679-449.579345 449.625394 0 248.296039 201.288422 449.594695 449.579345 449.594695 248.285806 0 449.640744-201.299679 449.640744-449.594695C963.192587 261.525342 761.836627 60.225663 513.550821 60.225663zM513.671571 917.673369c-225.166249 0-407.696446-182.53736-407.696446-407.706679S288.505321 102.254895 513.671571 102.254895c225.173412 0 407.703609 182.541453 407.703609 407.710772S738.844983 917.673369 513.671571 917.673369z" />
<path d="M366.566188 453.597869c0 7.726985-9.204639 13.995759-20.559245 13.995759l0 0c-11.347442 0-20.551058-6.268774-20.551058-13.995759L325.455885 336.364841c0-7.726985 9.204639-13.995759 20.551058-13.995759l0 0c11.354606 0 20.559245 6.268774 20.559245 13.995759L366.566188 453.597869z" />
<path d="M701.708178 453.597869c0 7.726985-9.203616 13.995759-20.560268 13.995759l0 0c-11.346419 0-20.550035-6.268774-20.550035-13.995759L660.597875 336.364841c0-7.726985 9.203616-13.995759 20.550035-13.995759l0 0c11.356652 0 20.560268 6.268774 20.560268 13.995759L701.708178 453.597869z" />
<path d="M786.034748 516.844332c-8.266267 146.885372-126.999462 265.030166-272.453229 265.030166-145.459906 0-264.189008-118.144794-272.455275-265.030166l-46.750767 0c5.372358 171.733293 146.171104 309.314765 319.206042 309.314765 173.028798 0 313.831638-137.580448 319.203996-309.314765L786.034748 516.844332z" />
</svg>
