<svg fill="#757575" xmlns="http://www.w3.org/2000/svg"  width="1024" height="1024" viewBox="0 0 1024 1024">
  <path d="M721.454545 93.090909 279.272727 93.090909C227.84 93.090909 186.181818 134.795636 186.181818 186.181818l0 698.181818c0 51.432727 41.658182 93.090909 93.090909 93.090909l442.181818 0c51.432727 0 93.090909-41.658182 93.090909-93.090909L814.545455 186.181818C814.545455 134.795636 772.887273 93.090909 721.454545 93.090909zM581.818182 930.909091 418.909091 930.909091l0-46.545455 162.909091 0L581.818182 930.909091zM768 791.272727c0 25.693091-20.852364 46.545455-46.545455 46.545455L279.272727 837.818182c-25.693091 0-46.545455-20.852364-46.545455-46.545455L232.727273 186.181818c0-25.693091 20.852364-46.545455 46.545455-46.545455l442.181818 0c25.693091 0 46.545455 20.852364 46.545455 46.545455L768 791.272727z" />
</svg>
