<svg fill="#757575" xmlns="http://www.w3.org/2000/svg"  width="1024" height="1024" viewBox="0 0 1024 1024">
  <path d="M352.53359 829.922816c-35.238572 0-63.782675 28.54615-63.782675 63.786769 0 35.237549 28.545126 63.781652 63.782675 63.781652 35.240619 0 63.781652-28.545126 63.781652-63.781652C416.315242 858.467943 387.775232 829.922816 352.53359 829.922816L352.53359 829.922816 352.53359 829.922816zM799.016411 829.922816c-35.240619 0-63.787792 28.54615-63.787792 63.786769 0 35.237549 28.54615 63.781652 63.787792 63.781652 35.235502 0 63.781652-28.545126 63.781652-63.781652C862.798063 858.467943 834.251913 829.922816 799.016411 829.922816L799.016411 829.922816 799.016411 829.922816zM862.28641 798.034549 344.276533 798.034549c-45.957705 0-86.36295-36.354999-91.976808-82.759889l-54.087872-380.784516L167.436942 156.535149c-1.913583-15.526625-16.074094-28.223808-29.913287-28.223808l-40.627303 0c-17.607006 0-31.894408-14.287401-31.894408-31.887244 0-17.605983 14.287401-31.894408 31.894408-31.894408l40.627303 0c46.530756 0 87.383186 36.356023 93.028766 82.760912l30.710442 177.281659 54.313 382.409526c1.784646 14.799054 15.176654 27.270087 28.700669 27.270087l518.010901 0c17.635659 0 31.893384 14.253632 31.893384 31.888268C894.179794 783.776823 879.923092 798.034549 862.28641 798.034549L862.28641 798.034549zM384.140449 670.466128c-16.549931 0-30.550807-12.754488-31.766494-29.562293-1.304715-17.572214 11.895935-32.848129 29.435403-34.122145l432.643628-31.895431c15.878642-0.092098 29.27372-12.564154 31.026644-26.754341l50.228985-287.404756c1.27504-10.715039-1.687432-22.452361-8.096399-29.722952-4.116761-4.656043-9.28548-7.016811-15.309684-7.016811L320.133669 223.987401c-17.605983 0-31.893384-14.287401-31.893384-31.894408 0-17.599843 14.287401-31.887244 31.893384-31.887244l552.167838 0c24.364921 0 46.749744 10.107195 63.046918 28.511357 18.627243 21.017686 27.172873 50.6424 23.440875 81.352843l-50.258661 287.439548c-5.421476 44.712341-45.797046 81.068364-91.753727 81.068364l-430.278767 31.795147C385.702014 670.436452 384.903835 670.466128 384.140449 670.466128L384.140449 670.466128zM384.140449 670.466128" />
</svg>
