<svg fill="#757575" xmlns="http://www.w3.org/2000/svg"  width="1024" height="1024" viewBox="0 0 1024 1024">
  <path d="M512 192c179.2 0 320 140.8 320 320s-140.8 320-320 320-320-140.8-320-320S332.8 192 512 192M512 128C300.8 128 128 300.8 128 512s172.8 384 384 384 384-172.8 384-384S723.2 128 512 128L512 128z" />
<path d="M640 672c-6.4 0-19.2 0-25.6-6.4l-128-128C486.4 531.2 480 518.4 480 512L480 288C480 268.8 492.8 256 512 256s32 12.8 32 32l0 211.2 121.6 121.6c12.8 12.8 12.8 32 0 44.8C659.2 672 646.4 672 640 672z" />
</svg>
