<svg fill="#757575" xmlns="http://www.w3.org/2000/svg"  width="1024" height="1024" viewBox="0 0 1024 1024">
  <path d="M870.751199 360.439142c-19.611663-46.366004-47.682999-88.004333-83.434248-123.755582-35.751249-35.751249-77.387531-63.823608-123.753535-83.435271-48.013527-20.309558-99.004875-30.607088-151.555741-30.607088-52.55496 0-103.549378 10.29753-151.565974 30.607088-46.36805 19.611663-88.00638 47.684022-123.758652 83.435271-13.8351 13.8351-26.505677 28.560476-37.995359 44.091194-0.425695 0.525979-0.826831 1.077541-1.204431 1.653663-17.665335 24.143886-32.481785 50.219775-44.236504 78.010725-20.309558 48.015573-30.607088 99.006921-30.607088 151.559834 0 52.552913 10.29753 103.546308 30.607088 151.560858 19.611663 46.367027 47.684022 88.004333 83.436294 123.756605s77.390601 63.823608 123.758652 83.435271c48.016597 20.309558 99.009991 30.607088 151.565974 30.607088 52.550867 0 103.542214-10.29753 151.555741-30.607088 46.366004-19.611663 88.002286-47.684022 123.753535-83.435271 35.752272-35.752272 63.822584-77.389578 83.434248-123.756605 20.309558-48.015573 30.607088-99.007945 30.607088-151.560858C901.358287 459.446064 891.060757 408.454716 870.751199 360.439142zM805.182854 700.440813c-27.370371-14.144138-60.013839-26.308179-96.094592-35.8106 9.526981-41.48381 15.114233-86.095867 16.393365-132.164089l134.333498 0C856.337931 592.874959 837.502957 650.376581 805.182854 700.440813zM164.183851 532.465101l134.315078 0c1.279133 46.066175 6.870478 90.677209 16.401552 132.162042-36.0828 9.502421-68.723198 21.667485-96.084359 35.81367C186.49602 650.376581 167.660023 592.875982 164.183851 532.465101zM220.883201 320.386938c27.169803 13.814634 59.402925 25.695219 94.948489 34.997072-10.099009 42.608423-16.011672 88.60399-17.33276 136.149866L164.183851 491.533876C167.733701 429.843862 187.295222 371.186927 220.883201 320.386938zM491.542574 491.532853 339.45062 491.532853c1.301645-44.545542 6.847965-87.4804 16.262382-127.08235 42.982954 8.425903 88.514963 13.218046 135.829572 14.286378L491.542574 491.532853zM491.542574 532.465101 491.542574 641.032772c-47.665603 1.076518-93.519953 5.933129-136.78227 14.475689-8.841366-38.47529-14.051017-80.010265-15.308661-123.043361L491.542574 532.465101zM532.474822 532.465101l152.055115 0c-1.257643 43.036165-6.464225 84.572164-15.300474 123.044384-43.259246-8.543583-89.104387-13.400195-136.75464-14.476713L532.474822 532.465101zM532.474822 491.532853 532.474822 378.73688c47.300282-1.069355 92.822059-5.861498 135.800919-14.288424 9.4093 39.60195 14.95255 82.536808 16.254196 127.084397L532.474822 491.532853zM532.474822 337.792353 532.474822 166.137855c14.263865 3.576455 28.30158 10.885931 41.926902 21.884426 20.827351 16.809851 39.723723 41.247426 56.168254 72.631204 10.265808 19.593244 19.166525 41.131793 26.63666 64.176648C618.188996 332.25422 575.942823 336.720951 532.474822 337.792353zM449.618742 188.023304c13.626345-10.997472 27.662013-18.307971 41.923832-21.884426l0 171.653475c-43.48335-1.071402-85.736687-5.536087-124.754329-12.95915 7.474228-23.044856 16.379039-44.583404 26.64894-64.177672C409.886833 229.272777 428.788322 204.835202 449.618742 188.023304zM491.542574 681.977299 491.542574 857.861122c-14.261818-3.575432-28.297486-10.886955-41.923832-21.884426-20.829398-16.811898-39.73191-41.249473-56.181557-72.633251-10.861372-20.722974-20.206204-43.61024-27.934213-68.164472C404.876726 687.609577 447.58134 683.058934 491.542574 681.977299zM574.4007 835.977719c-13.624299 10.997472-27.662013 18.308995-41.926902 21.88545l0-175.885869c43.945885 1.083681 86.643336 5.635347 126.016065 13.204743-7.724938 24.555256-17.065677 47.442522-27.921933 68.164472C614.125447 794.730293 595.228051 819.166845 574.4007 835.977719zM725.480604 491.532853c-1.320065-47.547923-7.229658-93.545536-17.323551-136.151913 35.543517-9.299807 67.780733-21.180392 94.959745-34.994002 33.585933 50.801013 53.148477 109.457948 56.697303 171.145915L725.480604 491.532853zM758.373759 265.626753c6.919597 6.919597 13.491269 14.09195 19.748786 21.472034-23.536043 11.32186-50.849108 20.99108-80.82584 28.766161-8.417717-26.66122-18.611893-51.576679-30.469965-74.209142-11.790534-22.50455-24.854061-42.039465-38.929638-58.418504C676.429445 200.307072 720.916659 228.169653 758.373759 265.626753zM396.124388 183.234231c-14.078647 16.379039-27.145244 35.914978-38.940894 58.419528-11.864212 22.63451-22.064528 47.553039-30.485315 74.215282-29.979802-7.776104-57.290821-17.445324-80.820724-28.76923 6.258541-7.380084 12.830213-14.553461 19.74981-21.472034C303.087435 228.166583 347.581812 200.302979 396.124388 183.234231zM265.627265 758.373247c-7.855922-7.855922-15.276938-16.029068-22.278399-24.474414 23.781636-11.701506 51.560306-21.681812 82.144882-29.68509 8.648984 28.136827 19.24839 54.395888 31.689746 78.132498 11.795651 22.505573 24.862247 42.041512 38.941917 58.420551C347.581812 823.697021 303.087435 795.833417 265.627265 758.373247zM627.895055 840.762699c14.0766-16.379039 27.139104-35.914978 38.930661-58.419528 12.435217-23.732517 23.029506-49.989531 31.673373-78.125335 30.582529 8.002254 58.362222 17.98256 82.151022 29.68202-7.001461 8.445346-14.422478 16.618493-22.277376 24.473391C720.916659 795.830347 676.428422 823.692928 627.895055 840.762699z" />
</svg>
