<svg fill="#757575" xmlns="http://www.w3.org/2000/svg"  width="1024" height="1024" viewBox="0 0 1024 1024">
  <path d="M904.777153 118.89897 117.321544 118.89897c-28.991288 0-52.497655 23.530926-52.497655 52.498678l0 682.462347c0 29.015847 23.506367 52.497655 52.497655 52.497655l787.455609 0c28.992311 0 52.498678-23.480784 52.498678-52.497655l0-682.46337C957.275831 142.428873 933.770488 118.89897 904.777153 118.89897zM904.777153 827.610144c0 14.507412-11.740392 26.247804-26.247804 26.247804L143.569348 853.857948c-14.506389 0-26.247804-11.741415-26.247804-26.247804L117.321544 724.994022 301.060265 534.774703c29.529547-31.991622 52.497655 0 52.497655 0l104.995309 104.994286 209.988572-209.988572c27.89021-31.990598 52.497655 0 52.497655 0l183.739744 183.740768L904.777153 827.610144 904.777153 827.610144zM904.777153 546.258245 741.544465 379.768373c-54.957683-58.262962-91.050716-1.664919-91.050716-1.664919l-191.941544 194.404642-89.409332-95.151104c-41.013089-53.317323-85.308945 5.76633-85.308945 5.76633L117.321544 653.18044 117.321544 197.667965c0-14.508435 11.740392-26.272363 26.247804-26.272363l734.961024 0c14.508435 0 26.247804 11.763928 26.247804 26.272363L904.777153 546.258245 904.777153 546.258245zM248.563634 276.389888c-28.990265 0-52.497655 23.530926-52.497655 52.497655 0 29.014824 23.50739 52.497655 52.497655 52.497655 28.991288 0 52.497655-23.481807 52.497655-52.497655C301.060265 299.920814 277.553898 276.389888 248.563634 276.389888z" />
</svg>
