<svg fill="#757575" xmlns="http://www.w3.org/2000/svg"  width="1024px" height="1024px" viewBox="0 0 1024 1024">
<path d="M251.254418 224.735437l695.848215 0 0 52.188616-695.848215 0 0-52.188616Z" />
<path d="M251.254418 485.678518l695.848215 0 0 52.188616-695.848215 0 0-52.188616Z" />
<path d="M251.254418 746.621599l695.848215 0 0 52.188616-695.848215 0 0-52.188616Z" />
<path d="M77.292364 224.735437l52.188616 0 0 52.188616-52.188616 0 0-52.188616Z" />
<path d="M77.292364 485.678518l52.188616 0 0 52.188616-52.188616 0 0-52.188616Z" />
<path d="M77.292364 746.621599l52.188616 0 0 52.188616-52.188616 0 0-52.188616Z" />
</svg>
