<svg fill="#757575" xmlns="http://www.w3.org/2000/svg"  width="1024" height="1024" viewBox="0 0 1024 1024">
  <path d="M971.124364 961.489455l-229.608727-229.608727c2.280727-2.187636 4.701091-4.049455 6.935273-6.283636 150.062545-149.969455 150.062545-393.076364 0-543.045818C598.388364 32.581818 355.095273 32.581818 205.032727 182.551273c-150.062545 149.969455-150.062545 393.076364 0 543.045818 136.610909 136.517818 350.208 148.340364 500.689455 36.305455l232.494545 232.494545c9.076364 9.076364 23.831273 9.076364 32.907636 0C980.200727 985.320727 980.200727 970.565818 971.124364 961.489455zM238.033455 691.991273c-131.863273-131.770182-131.863273-345.460364 0-477.230545 131.863273-131.770182 345.693091-131.770182 477.556364 0 131.863273 131.770182 131.863273 345.460364 0 477.230545C583.68 823.761455 369.896727 823.761455 238.033455 691.991273z" />
</svg>
