<?xml version="1.0" standalone="no"?><!DOCTYPE svg PUBLIC "-//W3C//DTD SVG 1.1//EN" "http://www.w3.org/Graphics/SVG/1.1/DTD/svg11.dtd"><svg viewBox="0 0 1024 1024" xmlns="http://www.w3.org/2000/svg"><path d="M172.67013 401.718291c-60.806901 0-110.281709 49.473785-110.281709 110.281709s49.474808 110.282732 110.281709 110.282732c60.807924 0 110.281709-49.474808 110.281709-110.282732S233.478054 401.718291 172.67013 401.718291zM172.67013 605.314269c-51.445696 0-93.314269-41.868573-93.314269-93.314269s41.869596-93.314269 93.314269-93.314269c51.445696 0 93.315292 41.868573 93.315292 93.314269S224.116849 605.314269 172.67013 605.314269z" fill="#000000"></path><path d="M511.999488 401.718291c-60.807924 0-110.282732 49.473785-110.282732 110.281709s49.474808 110.282732 110.282732 110.282732c60.806901 0 110.281709-49.474808 110.281709-110.282732S572.806389 401.718291 511.999488 401.718291zM511.999488 605.314269c-51.445696 0-93.315292-41.868573-93.315292-93.314269s41.869596-93.314269 93.315292-93.314269c51.444673 0 93.314269 41.868573 93.314269 93.314269S563.444161 605.314269 511.999488 605.314269z" fill="#000000"></path><path d="M851.3268 401.718291c-60.807924 0-110.281709 49.473785-110.281709 110.281709s49.473785 110.282732 110.281709 110.282732 110.282732-49.474808 110.282732-110.282732S912.134725 401.718291 851.3268 401.718291zM851.3268 605.314269c-51.445696 0-93.315292-41.868573-93.315292-93.314269s41.869596-93.314269 93.315292-93.314269 93.314269 41.868573 93.314269 93.314269S902.77352 605.314269 851.3268 605.314269z" fill="#000000"></path></svg>