<svg fill="#757575" xmlns="http://www.w3.org/2000/svg"  width="1024" height="1024" viewBox="0 0 1024 1024">
  <path d="M454.573591 781.125437c18.790972 1.697665 38.150902 2.856048 56.952106 2.856048l0 0c109.912295 0 209.012338-35.363416 280.761452-92.943832 71.187319-57.000202 115.624391-135.679146 115.624391-222.928279l0 0 0 0 0 0 0 0c0-86.651522-44.437072-165.889191-115.624391-222.909859-71.749114-57.58144-170.849156-92.924389-280.761452-92.924389l0 0c-109.3505 0-208.442356 35.342949-280.20068 92.924389-71.758324 57.020668-115.614158 136.258337-115.614158 222.909859 0 40.497343 9.680477 79.836303 27.90249 116.318192 18.232247 37.062104 45.564755 71.266114 80.880075 100.916411l0 0c6.264681 5.133927 11.388375 12.546757 13.665231 20.519336l0 0c2.847861 7.990998 3.417843 16.542768 1.139963 25.092491l-24.495904 104.332207 156.054195-62.155618c2.27788-1.136893 5.123694-2.276856 7.972579-2.836605 2.846838-0.578168 5.693676-0.578168 8.540514-0.578168l0 0c2.27788 0 3.986801 0 5.693676 0 1.707898 0.578168 3.416819 0.578168 5.124717 1.13894l0 0C416.980391 775.411295 435.781596 778.847557 454.573591 781.125437L454.573591 781.125437zM195.440739 207.55822c80.869842-66.132186 193.06718-107.169835 316.084958-107.169835l0 0 0 0c123.57855 0 235.20693 41.037648 316.085982 107.169835 81.439824 66.710354 131.549082 159.074995 131.549082 260.551154l0 0 0 0c0 102.07377-50.109258 193.859219-131.549082 260.569574-80.879052 66.132186-192.507432 107.169835-316.085982 107.169835l0 0c-21.078061 0-42.147936-1.137916-62.647829-3.415796-20.49887-2.858094-41.007973-6.27389-60.938907-10.830673L152.163073 915.667689l-10.259668 4.574179 2.278903-10.849092 44.425815-186.986695c-38.73214-33.066093-70.050426-72.406077-91.690282-115.741048-21.078061-42.754756-33.036417-89.525989-33.036417-138.555659C63.881424 366.633215 114.000915 274.268574 195.440739 207.55822L195.440739 207.55822z"/>
</svg>
