<svg fill="#757575" xmlns="http://www.w3.org/2000/svg"  width="1024" height="1024" viewBox="0 0 1024 1024">
  <path d="M892.728234 251.347538c1.180895-1.180895 2.213411-2.449795 3.157923-3.76065 17.261129-19.680225 26.734898-44.74304 26.734898-71.062476 0-59.468416-48.38294-107.85545-107.859543-107.85545L209.235418 68.668962c-59.468416 0-107.85545 48.388057-107.85545 107.85545 0 25.677822 9.016351 50.132794 25.472138 69.582775 1.204431 1.938142 2.622734 3.789303 4.305049 5.471618l239.264339 239.255129 0 259.224949c0 9.175987 4.093225 17.380856 10.534937 22.935362 0.37146 0.346901 0.718361 0.708128 1.108241 1.041726L597.072561 948.301947c5.562692 4.724605 12.361539 7.02909 19.131733 7.02909 8.384971 0 16.7198-3.548826 22.574135-10.443863 5.631254-6.634094 7.79043-15.024182 6.740518-23.017226L645.518946 498.55785 892.728234 251.347538 892.728234 251.347538zM177.804569 212.521255c-0.824785-1.14815-1.706875-2.270716-2.713808-3.322675-8.457626-8.828063-13.114692-20.432355-13.114692-32.674167 0-26.055422 21.203928-47.254234 47.25935-47.254234L814.760488 129.270179c26.064632 0 47.264467 21.198811 47.264467 47.254234 0 12.158924-4.604878 23.706935-12.96529 32.519648-0.598634 0.627287-1.137916 1.287319-1.669012 1.947352L593.792864 464.586131c-5.679349 5.679349-8.876158 13.387915-8.876158 21.420869L584.916706 860.378455 431.011454 737.961358 431.011454 478.288201c0-8.03807-3.190669-15.742543-8.871041-21.425985L177.804569 212.521255 177.804569 212.521255zM177.804569 212.521255" />
</svg>
