<svg fill="#757575" xmlns="http://www.w3.org/2000/svg"  width="1024" height="1024" viewBox="0 0 1024 1024">
  <path d="M960 403.2c-38.4-217.6-224-377.6-448-377.6-224 0-409.6 166.4-448 377.6C25.6 435.2 0 492.8 0 550.4c0 76.8 44.8 166.4 115.2 166.4 64 0 64-70.4 64-166.4 0-89.6 0-160-44.8-166.4C172.8 211.2 326.4 83.2 512 83.2c185.6 0 339.2 128 377.6 294.4-44.8 12.8-44.8 76.8-44.8 166.4 0 64 0 108.8 12.8 140.8-57.6 89.6-140.8 153.6-243.2 179.2-19.2-25.6-57.6-44.8-102.4-44.8-64 0-115.2 32-115.2 70.4 0 38.4 51.2 70.4 115.2 70.4s115.2-32 115.2-70.4c0 0 0 0 0 0 102.4-25.6 192-96 249.6-185.6 6.4 6.4 19.2 6.4 32 6.4 70.4 0 115.2-89.6 115.2-166.4C1024 492.8 998.4 435.2 960 403.2z" />
</svg>
