<svg fill="#757575" xmlns="http://www.w3.org/2000/svg"  width="1024" height="1024" viewBox="0 0 1024 1024">
  <path d="M910.390485 419.06176C898.522325 419.06176 888.928939 409.46816 888.928939 397.6L888.928939 139.115947C888.928939 121.36704 874.485205 106.92352 856.736469 106.92352 845.340331 106.92352 612.760491 107.1808 598.960683 107.610027 588.315605 108.2112 578.121429 100.76416 576.297259 89.754027 574.344149 78.057813 582.220672 67.004587 593.895723 65.0304 599.862059 64.02176 854.182528 64 856.736469 64 898.157525 64 931.852245 97.695147 931.852245 139.115947L931.852245 397.6C931.852245 409.46816 922.258859 419.06176 910.390485 419.06176L910.390485 419.06176Z" />
<path d="M85.461632 419.06176C73.593387 419.06176 64 409.46816 64 397.6L64 139.115947C64 97.695147 97.694805 64 139.115819 64 141.669717 64 395.990187 64.02176 401.956565 65.0304 413.631659 67.004587 421.508139 78.057813 419.555072 89.754027 417.709355 100.76416 407.686699 108.189867 396.891605 107.610027 383.091755 107.1808 150.511915 106.92352 139.115819 106.92352 121.366912 106.92352 106.923307 121.36704 106.923307 139.115947L106.923307 397.6C106.923307 409.46816 97.329963 419.06176 85.461632 419.06176L85.461632 419.06176Z" />
<path d="M856.736469 973.728C854.182528 973.728 599.862059 973.70624 593.895723 972.698027 582.220672 970.72384 574.344149 959.670613 576.297259 947.973973 578.121429 936.964267 588.315605 929.62432 598.960683 930.117973 612.696192 930.5472 845.340331 930.804907 856.736469 930.804907 874.485205 930.804907 888.928939 916.361387 888.928939 898.612907L888.928939 640.128427C888.928939 628.25984 898.522325 618.666667 910.390485 618.666667 922.258859 618.666667 931.852245 628.25984 931.852245 640.128427L931.852245 898.612907C931.852245 940.033707 898.157525 973.728 856.736469 973.728L856.736469 973.728Z" />
<path d="M139.115819 973.728C97.694805 973.728 64 940.033707 64 898.612907L64 640.128427C64 628.25984 73.593387 618.666667 85.461632 618.666667 97.329963 618.666667 106.923307 628.25984 106.923307 640.128427L106.923307 898.612907C106.923307 916.361387 121.366912 930.804907 139.115819 930.804907 150.511915 930.804907 383.156139 930.5472 396.891605 930.117973 407.708245 929.64608 417.709355 936.964267 419.555072 947.973973 421.508139 959.670613 413.631659 970.72384 401.956565 972.698027 395.990187 973.70624 141.669717 973.728 139.115819 973.728L139.115819 973.728Z" />
<path d="M983.5232 533.590187 42.794965 533.590187C30.926592 533.590187 21.333333 523.996587 21.333333 512.128 21.333333 500.260267 30.926592 490.666667 42.794965 490.666667L983.5232 490.666667C995.391488 490.666667 1004.984832 500.260267 1004.984832 512.128 1004.984832 523.996587 995.391488 533.590187 983.5232 533.590187L983.5232 533.590187Z" />
</svg>
