<svg  fill="#757575" xmlns="http://www.w3.org/2000/svg" width="1171px" height="1024px" viewBox="0 0 1171 1024">
  <path d="M950.863207 18.285387q0-7.971986 5.119624-13.164748t13.164748-5.119624l164.559345 0q14.84691 0 25.744395 10.824348t10.824348 25.744395l0 164.559345q0 7.971986-5.119624 13.164748t-13.164748 5.119624l-36.568743 0q-7.971986 0-13.164748-5.119624t-5.119624-13.164748l0-76.574949-145.104774 145.689874q43.443667 54.268015 61.435489 122.285878t5.412174 141.155349q-18.284372 102.831306-93.98167 177.138993t-179.113705 89.739696q-127.405502 19.454571-233.67427-51.415653-66.847663 44.540729-146.274974 53.170953l0 75.404749 54.853115 0q7.971986 0 13.164748 5.119624t5.119624 13.164748l0 36.568743q0 7.971986-5.119624 13.164748t-13.164748 5.119624l-54.853115 0 0 54.853115q0 7.971986-5.119624 13.164748t-13.164748 5.119624l-36.568743 0q-7.971986 0-13.164748-5.119624t-5.119624-13.164748l0-54.853115-54.853115 0q-7.971986 0-13.164748-5.119624t-5.119624-13.164748l0-36.568743q0-7.971986 5.119624-13.164748t13.164748-5.119624l54.853115 0 0-75.404749q-88.569496-9.727286-159.732271-62.532551t-106.853868-135.670038-22.599483-175.383693q14.26181-106.853868 91.129309-184.306467t183.136267-93.98167q127.990602-19.454571 234.25937 51.415653 83.449872-55.438215 182.843717-55.438215 114.825854 0 205.15065 71.967287l145.689874-145.104774-76.574949 0q-7.971986 0-13.164748-5.119624t-5.119624-13.164748l0-36.568743zM512.038286 654.215835q73.137487-74.819649 73.137487-178.821155t-73.137487-178.821155q-73.137487 74.819649-73.137487 178.821155t73.137487 178.821155zM73.213366 475.39468q0 105.683668 75.112199 180.869005t180.869005 75.112199q66.847663 0 124.55314-32.546182-87.984397-95.44442-87.984397-223.435022t87.984397-223.435022q-57.705477-32.546182-124.55314-32.546182-105.683668 0-180.869005 75.112199t-75.112199 180.869005zM694.882003 731.375883q105.683668 0 180.869005-75.112199t75.112199-180.869005-75.112199-180.869005-180.869005-75.112199q-66.847663 0-124.55314 32.546182 87.984397 95.44442 87.984397 223.435022t-87.984397 223.435022q57.705477 32.546182 124.55314 32.546182z"/>
</svg>
