<svg fill="#757575" xmlns="http://www.w3.org/2000/svg" width="1024px" height="1024px" viewBox="0 0 1024 1024">
  <path d="M274.285714 804.571429l0 73.142857-201.142857 0 0-73.142857 201.142857 0zM475.428571 731.428571q14.848 0 25.746286 10.825143t10.825143 25.746286l0 146.285714q0 14.848-10.825143 25.746286t-25.746286 10.825143l-146.285714 0q-14.848 0-25.746286-10.825143t-10.825143-25.746286l0-146.285714q0-14.848 10.825143-25.746286t25.746286-10.825143l146.285714 0zM566.857143 512l0 73.142857-493.714286 0 0-73.142857 493.714286 0zM201.142857 219.428571l0 73.142857-128 0 0-73.142857 128 0zM950.857143 804.571429l0 73.142857-420.571429 0 0-73.142857 420.571429 0zM402.285714 146.285714q14.848 0 25.746286 10.825143t10.825143 25.746286l0 146.285714q0 14.848-10.825143 25.746286t-25.746286 10.825143l-146.285714 0q-14.848 0-25.746286-10.825143t-10.825143-25.746286l0-146.285714q0-14.848 10.825143-25.746286t25.746286-10.825143l146.285714 0zM768 438.857143q14.848 0 25.746286 10.825143t10.825143 25.746286l0 146.285714q0 14.848-10.825143 25.746286t-25.746286 10.825143l-146.285714 0q-14.848 0-25.746286-10.825143t-10.825143-25.746286l0-146.285714q0-14.848 10.825143-25.746286t25.746286-10.825143l146.285714 0zM950.857143 512l0 73.142857-128 0 0-73.142857 128 0zM950.857143 219.428571l0 73.142857-493.714286 0 0-73.142857 493.714286 0z"/>
</svg>
