<svg fill="#757575" xmlns="http://www.w3.org/2000/svg"  width="1024" height="1024" viewBox="0 0 1024 1024">
  <path d="M977.454545 535.272727c0-56.180364-39.796364-103.005091-92.765091-113.896727L884.689455 156.253091c0-12.288-10.193455-33.698909-21.736727-38.027636-11.589818-4.282182-24.669091-1.024-32.814545 8.192-99.095273 112.174545-225.792 183.854545-412.392727 198.795636C416.209455 325.352727 406.900364 325.352727 405.410909 325.678545c-0.093091 0-0.186182-0.046545-0.279273-0.046545L247.528727 325.632c-4.235636 0-11.124364-0.512-14.754909 1.024C126.045091 341.876364 46.545455 425.239273 46.545455 535.272727c0 109.986909 100.305455 191.069091 207.080727 206.289455 0.186182 0.093091 0.465455 0.046545 0.651636 0.139636-0.093091 0.884364-0.512 1.629091-0.512 2.513455 0 109.847273 104.261818 209.268364 186.181818 209.268364 33.838545 0 33.838545-49.477818 0-49.477818-78.010182 0-138.286545-82.478545-138.286545-159.790545 0-0.046545-0.046545-0.093091-0.046545-0.139636l103.517091 0c0.093091 0 0.186182-0.046545 0.325818-0.046545 1.442909 0.372364 2.746182 1.070545 4.282182 1.210182 186.600727 14.941091 321.303273 86.807273 420.398545 198.935273 5.725091 6.516364 13.963636 10.053818 22.341818 10.053818 3.490909 0 7.028364-0.605091 10.472727-1.861818 11.589818-4.282182 21.736727-5.771636 21.736727-18.059636l0-285.044364C937.658182 638.277818 977.454545 591.453091 977.454545 535.272727zM372.410182 697.856 267.170909 697.809455c-88.855273 0-174.545455-74.379636-174.545455-162.536727 0-88.157091 85.690182-163.700364 174.545455-163.700364l105.239273 0.279273L372.410182 697.856zM837.073455 882.827636c-98.676364-112.453818-258.792727-171.008-418.304-187.950545L418.769455 375.668364c159.511273-16.942545 299.380364-75.915636 418.304-189.672727L837.073455 882.827636zM884.689455 600.622545l0-130.699636C911.546182 479.650909 930.909091 505.064727 930.909091 535.272727 930.909091 565.480727 911.546182 590.941091 884.689455 600.622545z"/>
</svg>
