<svg fill="#757575" xmlns="http://www.w3.org/2000/svg"  width="1024" height="1024" viewBox="0 0 1024 1024">
  <path d="M511.999488 965.813786c-156.641851 0-283.645494-126.969786-283.645494-283.633872 0-63.706951 21.273361-122.316813 56.729303-169.653935L285.083298 285.093107c0-125.308961 101.603119-226.907916 226.91619-226.907916 125.314095 0 226.91619 101.598956 226.91619 226.907916l0 227.433896c35.455943 47.337121 56.730327 105.946984 56.730327 169.653935C795.646005 838.844 668.642363 965.813786 511.999488 965.813786zM682.187399 285.093107c0-93.981465-76.202595-170.180937-170.18791-170.180937-93.985315 0-170.18791 76.198449-170.18791 170.180937l0 170.567747c47.449583-35.703153 106.256283-57.113789 170.18791-57.113789 63.959258 0 122.738328 21.410636 170.18791 57.113789L682.187399 285.093107zM688.974243 540.364001l-6.786845 0 0-7.922437c-41.577611-47.212278-102.322533-77.168544-170.18791-77.168544-125.314095 0-226.91619 101.598956-226.91619 226.907916s101.603119 226.906893 226.91619 226.906893c125.314095 0 226.91619-101.597933 226.91619-226.906893C738.916702 628.501364 720.163848 579.224054 688.974243 540.364001zM511.999488 795.634896c-15.677693 0-28.36414-12.685927-28.36414-28.364001l0-113.453958c0-15.677051 12.686447-28.362978 28.36414-28.362978s28.365163 12.684904 28.365163 28.362978l0 113.453958C540.364652 782.947945 527.678205 795.634896 511.999488 795.634896z" />
</svg>
