<svg fill="#757575" xmlns="http://www.w3.org/2000/svg"  width="1024" height="1024" viewBox="0 0 1024 1024">
  <path d="M775.939391 373.693004c24.947181 4.969175 48.571172 13.604856 70.281503 25.335015 4.478171-8.903787 3.449707-20.015869-3.467103-27.998681-98.65997-113.778346-242.682915-179.01514-395.19044-179.01514-152.457381 0-296.504886 65.213257-395.166903 178.941462-9.126219 10.507308-8.065007 26.464745 2.368028 35.640732 10.434058 9.199523 26.318467 8.114818 35.395565-2.393513 89.140785-102.752222 219.424259-161.675216 357.404333-161.675216C571.253392 242.527662 688.73478 289.889343 775.939391 373.693004zM447.56335 648.210241c-27.649843 0-50.169642 22.296819-50.169642 49.724495 0 27.426653 22.519799 49.723471 50.169642 49.723471 20.212149 0 37.670468-11.921517 45.606533-29.0445-8.085474-19.363-13.820316-39.946804-16.867847-61.399395C468.154138 651.54929 458.246081 648.210241 447.56335 648.210241zM583.217355 413.263232c16.854544-11.612479 35.186802-21.230534 54.661117-28.513404-56.769214-33.096792-122.135576-51.012837-190.315121-51.012837-114.522889 0-221.10255 50.562583-292.384887 138.689712-8.73223 10.827603-7.128643 26.735921 3.601162 35.541471 10.778926 8.854669 26.614215 7.151887 35.2963-3.625574 61.713009-76.312036 154.135672-120.091122 253.488448-120.091122C495.269793 384.250454 541.359346 394.33923 583.217355 413.263232zM726.334637 419.323251c-111.586903 0-202.060088 90.457198-202.060088 202.052832 0 111.594611 90.473185 202.052832 202.060088 202.052832s202.059064-90.458221 202.059064-202.052832C928.393701 509.780449 837.92154 419.323251 726.334637 419.323251zM848.847828 725.08919c5.154605 5.154393 5.154605 13.528108 0 18.671245-2.566557 2.578732-5.945653 3.872191-9.323725 3.872191-3.403656 0-6.782751-1.294482-9.347262-3.885494L725.903807 639.299291 621.653287 743.748155c-2.589071 2.591011-5.968166 3.885494-9.347262 3.885494-3.380119 0-6.760238-1.294482-9.349308-3.872191-5.155628-5.143137-5.155628-13.516852 0-18.671245l104.039711-104.244202L602.956717 516.586458c-5.155628-5.154393-5.155628-13.528108 0-18.670222 5.154605-5.154393 13.516382-5.154393 18.69657 0.01228L725.903807 602.379427l104.274057-104.45091c5.130044-5.178953 13.490798-5.178953 18.670987-0.01228 5.154605 5.142114 5.154605 13.515828 0 18.670222L744.808117 620.844987 848.847828 725.08919zM257.812094 575.548338c-7.794843 11.542894-4.81076 27.254737 6.634366 35.097356 4.341043 2.959402 9.22446 4.366448 14.08434 4.366448 8.040446 0 15.93353-3.872191 20.767827-11.048637 32.978417-48.861848 88.401928-78.014818 148.264723-78.014818 14.619551 0 28.989406 1.75497 42.842469 5.114484 6.203536-16.191774 14.009636-31.589462 23.252516-45.980217-21.161816-6.309706-43.396101-9.648754-66.093962-9.648754C371.050681 475.4342 300.137772 512.874927 257.812094 575.548338z" />
</svg>
