<svg fill="#757575" xmlns="http://www.w3.org/2000/svg"  width="1024" height="1024" viewBox="0 0 1024 1024">
  <path d="M227.371 933.875c-24.753 0-48.022-9.744-65.503-27.371l-23.444-23.706c-102.443-103.492-20.070-348.838 187.523-558.525 142.961-144.387 308.581-234.062 432.259-234.062 50.058 0 91.827 15.445 120.74 44.647l23.415 23.677c17.511 17.656 27.167 41.157 27.167 66.172s-9.657 48.488-27.196 66.143l-93.718 94.706c-34.992 35.37-96.045 35.312-131.007 0l-23.444-23.677c-7.534-7.621-17.219-11.344-29.581-11.344-23.386 0-76.266 13.787-167.627 106.051-107.273 108.319-118.762 173.91-93.775 199.187l23.473 23.677c36.097 36.503 36.097 95.841 0 132.287l-93.775 94.735c-17.511 17.655-40.779 27.4-65.503 27.4zM758.205 143.412c-108.552 0-263.613 85.718-395.028 218.471-180.514 182.316-266.378 403.638-187.523 483.307l23.415 23.677c15.125 15.212 41.42 15.242 56.603-0.029l93.747-94.706c15.562-15.736 15.562-41.333 0-57.068l-23.474-23.677c-26.73-27.051-71.118-107.883 93.775-274.405 79.901-80.687 148.837-121.612 204.858-121.612 26.323 0 49.389 9.308 66.812 26.905l23.444 23.677c15.125 15.299 41.42 15.242 56.544 0l93.747-94.735c7.562-7.621 11.722-17.742 11.722-28.506 0-10.792-4.16-20.943-11.722-28.563l-23.415-23.677c-19.11-19.314-47.208-29.058-83.509-29.058z" />
</svg>
