<svg fill="#757575" xmlns="http://www.w3.org/2000/svg"  width="1024" height="1024" viewBox="0 0 1024 1024">
  <path d="M527.034926 942.620551c-247.174496 0-447.543989-200.370517-447.543989-447.538873 0-190.783161 119.585609-353.238137 287.701514-417.622516l0 69.242014c-131.960451 60.646242-223.765343 193.624882-223.765343 348.381525 0 211.845872 171.759899 383.606795 383.606795 383.606795 211.845872 0 383.605771-171.762969 383.605771-383.606795 0-154.75562-91.811032-287.736307-223.771483-348.411201L686.868191 77.459163c168.113859 64.384379 287.702538 226.840378 287.702538 417.622516C974.573799 742.250034 774.203282 942.620551 527.034926 942.620551L527.034926 942.620551zM495.066841 47.538713l63.931055 0L558.997895 496.231875l-63.931055 0L495.066841 47.538713 495.066841 47.538713z" />
</svg>
