<svg fill="#757575" xmlns="http://www.w3.org/2000/svg"  width="1024" height="1024" viewBox="0 0 1024 1024">
  <path d="M884.363636 162.909091 139.636364 162.909091c-51.432727 0-93.090909 41.704727-93.090909 93.090909l0 558.545455c0 51.432727 41.658182 93.090909 93.090909 93.090909l744.727273 0c51.432727 0 93.090909-41.658182 93.090909-93.090909l0-558.545455C977.454545 204.613818 935.796364 162.909091 884.363636 162.909091zM930.909091 814.545455c0 25.693091-20.852364 46.545455-46.545455 46.545455L139.636364 861.090909c-25.693091 0-46.545455-20.852364-46.545455-46.545455l0-558.545455c0-25.693091 20.852364-46.545455 46.545455-46.545455l744.727273 0c25.693091 0 46.545455 20.852364 46.545455 46.545455L930.909091 814.545455zM313.576727 619.287273l-148.107636 148.107636c-9.076364 9.076364-9.076364 23.831273 0 32.907636 9.076364 9.076364 23.831273 9.076364 32.907636 0l148.107636-148.107636c9.076364-9.076364 9.076364-23.831273 0-32.907636C337.408 610.210909 322.699636 610.210909 313.576727 619.287273zM544.907636 557.847273c-18.199273 18.199273-47.662545 18.199273-65.815273 0L200.517818 279.272727 134.656 279.272727l344.436364 344.436364c18.199273 18.152727 47.662545 18.152727 65.815273 0L889.344 279.272727l-65.815273 0L544.907636 557.847273zM710.423273 619.287273c-9.076364-9.076364-23.831273-9.076364-32.907636 0-9.076364 9.076364-9.076364 23.831273 0 32.907636l148.107636 148.107636c9.076364 9.076364 23.831273 9.076364 32.907636 0 9.076364-9.076364 9.076364-23.831273 0-32.907636L710.423273 619.287273z" />
</svg>
