<svg fill="#757575" xmlns="http://www.w3.org/2000/svg"  width="1024" height="1024" viewBox="0 0 1024 1024">
  <path d="M448.84103 768.449743c3.412726-2.275833 6.255471-3.990894 9.099239-6.843872 2.844791-2.275833 5.118578-5.129834 7.395434-7.962346 2.273786-2.852978 4.548596-6.266727 6.255471-9.67843l-0.568958 0c1.705851-3.432169 3.411703-6.843872 3.981684-10.835789 0.568958-3.970428 1.137916-8.53949 1.137916-12.510942 0-5.128811-0.568958-9.117658-1.137916-13.110599-0.569982-4.548596-1.705851-7.962346-3.411703-11.374048-1.706875-3.431146-3.412726-6.842849-5.687536-9.69685-2.27481-2.834558-4.548596-5.688559-7.393387-7.961322l0 0c-2.27481-2.275833-5.117554-4.550643-8.53028-6.266727-2.843768-1.695618-6.256494-3.411703-10.237155-4.548596-3.411703-1.136893-7.392364-2.27481-11.374048-2.852978-4.559852-0.559748-8.540514-0.559748-13.090133-0.559748l0 0c-3.980661 0-7.962346 0-11.374048 0-3.411703 0.559748-7.393387 0.559748-10.237155 1.137916l-6.823406 1.136893 0-6.843872 0-32.446993 0-7.40055 7.393387 1.695618c0 0 0.568958 0 1.136893 0 0.568958 0 1.137916 0 1.137916 0l0 0 12.510942 0.577145 0 0c3.981684 0 7.393387-0.577145 10.807137-1.13587 3.420913-0.578168 6.833639-1.136893 10.246365-2.275833l0 0c3.411703-1.136893 6.255471-2.275833 9.099239-3.989871 2.844791-1.137916 5.687536-2.854001 7.962346-5.128811 2.275833-1.696642 4.549619-3.989871 6.256494-6.265704l0 0c2.27481-2.833535 3.980661-5.128811 5.117554-8.540514l0 0c1.705851-2.834558 2.844791-5.688559 3.411703-9.100262l0 0c0.568958-3.431146 1.137916-7.402597 1.137916-10.834766l0 0c0-7.962346-1.137916-14.785751-3.411703-20.491707-2.27481-5.687536-5.686513-10.255575-10.236132-14.228049-5.118578-3.989871-10.237155-6.843872-16.492626-8.540514-5.687536-2.275833-12.522198-2.854001-19.915585-2.854001l0 0c-4.548596 0-9.099239 0-12.510942 1.137916-3.980661 0.577145-7.961322 2.275833-11.375072 3.989871l0 0c-2.843768 1.137916-6.255471 3.411703-9.099239 5.687536-2.843768 2.275833-5.118578 4.550643-7.393387 7.402597l0 0c-2.275833 2.852978-3.980661 6.265704-5.688559 9.679453-1.705851 3.431146-2.842745 6.842849-3.980661 10.813277-1.137916 3.990894-1.705851 8.559956-2.27481 12.531408-0.568958 3.990894-1.136893 8.540514-1.136893 13.110599l0 5.686513-5.696746 0-37.535895 0-5.686513 0 0-6.264681c0.568958-7.962346 1.136893-15.365966 2.273786-22.76754 1.706875-7.40362 3.411703-14.247492 5.688559-21.071921 2.273786-6.843872 4.549619-13.110599 7.961322-18.797112l0 0c3.411703-5.687536 6.824429-10.8143 11.375072-15.943111l0 0c3.980661-4.549619 9.100262-9.118682 14.217816-13.090133 5.118578-3.431146 10.815323-6.824429 17.639752-9.67843l0 0c6.256494-2.852978 13.080923-4.549619 20.47431-6.264681l0 0c6.824429-1.137916 14.786775-1.716084 22.748097-1.716084l0 0c6.825452 0 13.659091 0.578168 20.484543 1.137916 6.824429 1.137916 13.0799 2.293229 18.767436 3.989871 6.255471 2.27481 11.943007 4.550643 17.629519 7.40362 5.118578 2.275833 10.237155 5.706979 14.787798 9.677407l0 0c4.549619 3.431146 8.53949 7.981788 12.521175 12.531408 3.411703 5.129834 6.823406 10.256598 9.100262 16.501836l0 0c2.841721 5.706979 4.549619 11.972683 5.677303 18.797112 1.716084 6.843872 2.27481 14.227026 2.27481 22.208814l0 0c0 7.402597-1.136893 14.806217-3.40147 22.209838l0 0c-2.276856 6.824429-5.688559 13.666254-10.238179 19.354813-4.549619 6.265704-9.108448 11.394515-14.795984 15.943111-2.27481 1.716084-4.548596 3.989871-7.393387 5.127787 5.687536 2.276856 10.237155 4.550643 14.795984 7.40362 7.962346 5.127787 14.217816 11.393491 19.336394 19.355837 5.108345 7.980765 8.521071 15.942087 11.374048 25.061792l0 0c2.275833 9.100262 3.411703 18.218944 3.411703 28.473495l0 0c0 8.54256-0.557702 16.502859-2.273786 23.905456-1.716084 7.40362-3.990894 14.806217-6.824429 21.072945-2.854001 6.823406-6.825452 12.530384-10.807137 18.216897-3.981684 5.128811-8.53028 10.256598-13.659091 14.807241l0 0c-5.117554 3.989871-10.806113 7.961322-17.060561 11.393491-5.687536 2.833535-12.511965 5.687536-19.336394 7.961322-6.825452 2.27481-13.649881 3.989871-21.042245 4.550643-7.393387 1.155313-14.795984 1.716084-22.190395 1.716084l0 0c-8.531304 0-15.924691-0.560772-23.886013-1.716084-7.393387-1.136893-14.786775-2.835581-21.61018-5.110391l0 0c-6.825452-2.851954-13.080923-5.704932-18.777669-9.117658-6.256494-3.412726-11.374048-7.961322-16.492626-12.531408-4.549619-5.128811-9.100262-10.237155-12.512988-15.942087l0 0c-3.980661-5.688559-6.823406-12.531408-9.667174-19.35686-2.275833-6.824429-4.549619-14.227026-5.687536-22.207791-1.137916-7.402597-1.705851-15.365966-1.137916-24.483624l0-5.688559 5.687536 0 36.966936 0 5.686513 0 0 5.688559c0.568958 9.676383 2.27481 18.796088 4.549619 26.75741 2.852978 7.980765 6.834662 14.806217 11.952216 21.071921 5.118578 5.687536 11.375072 10.255575 18.768459 13.090133 7.392364 2.852978 15.923668 4.569062 26.1598 4.569062 3.981684 0 8.531304 0 12.521175-1.136893 3.980661-0.578168 7.961322-1.717108 11.375072-2.852978l0 0C442.017624 771.861446 445.429327 770.146385 448.84103 768.449743L448.84103 768.449743zM690.585863 816.838823l-37.555337 0-5.688559 0 0-5.686513L647.341966 585.668837 571.694055 585.668837l-5.687536 0 0-5.705955 0-30.749328 0-5.687536 5.687536 0c5.127787 0 10.238179 0 15.365966-0.577145 5.108345-0.560772 9.677407-1.137916 14.786775-1.697665l0 0c4.548596-1.136893 9.100262-2.275833 13.08911-3.411703l0 0c3.971451-1.716084 7.962346-3.432169 11.933797-5.705955 3.412726-1.697665 6.824429-3.971451 10.236132-6.824429l0 0c2.852978-2.854001 5.688559-6.265704 8.540514-9.67843l0 0c2.275833-3.432169 4.550643-7.980765 6.246261-12.531408 1.716084-4.549619 3.411703-9.67843 3.990894-15.384385l1.136893-4.549619 4.549619 0 29.014824 0 5.685489 0 0 5.706979 0 322.280054 0 5.686513L690.585863 816.838823zM116.093577 344.244298l791.201933 0L907.29551 229.208309c0-9.117658-3.989871-18.21792-10.236132-24.483624l0 0.558725c-6.265704-6.246261-14.786775-10.237155-24.466228-10.237155l-74.509994 0 0 54.654784c0 6.843872-2.855024 13.109576-7.40362 18.237363-4.549619 4.549619-11.374048 7.402597-18.198477 7.402597-7.385201 0-13.649881-2.852978-18.199501-7.402597-4.548596-5.127787-7.384178-11.393491-7.384178-18.237363l0-54.654784L276.490683 195.046255l0 54.654784c0 6.843872-2.842745 13.109576-7.392364 18.237363-5.118578 4.549619-11.375072 7.402597-18.200524 7.402597l0 0c-7.393387 0-13.648858-2.852978-18.198477-7.402597-5.118578-5.127787-7.962346-11.393491-7.962346-18.237363l0-54.654784-74.520227 0 0 0c-9.66922 0-18.198477 3.989871-24.455995 9.67843l0 0c-6.255471 6.265704-9.667174 15.365966-9.667174 24.483624L116.093577 344.244298zM897.059378 896.555399c6.246261-6.265704 10.236132-14.805194 10.236132-24.482601L907.29551 395.486356 116.093577 395.486356l0 476.586442 0 0c0 9.677407 3.411703 18.216897 9.667174 24.482601 6.257517 6.265704 14.786775 10.257621 24.455995 10.257621l0 0 722.376405 0 0 0C882.272603 906.813021 890.793674 902.821103 897.059378 896.555399L897.059378 896.555399zM798.083156 143.227052l74.509994 0 0 0c23.887037 0 45.499263 9.67843 60.864206 25.043373 15.364943 15.962553 25.022906 37.592177 25.022906 60.938907l0 0 0 642.86449 0 0c0 23.924899-9.657964 45.556569-25.022906 60.939931l0 0c-15.364943 15.364943-36.977169 25.042349-60.864206 25.042349l0 0L150.216745 958.056102l0 0c-23.886013 0-44.929282-9.677407-60.853973-25.042349l0 0c-15.363919-15.383362-25.03314-37.015032-25.03314-60.939931L64.329633 229.208309c0-23.346731 9.66922-44.976354 25.03314-60.360739 15.924691-15.943111 37.535895-25.620517 60.853973-25.620517l74.520227 0L224.736972 88.571245l0 0 0 0 0 0c0-6.843872 2.843768-13.109576 7.962346-18.23634 4.549619-4.550643 10.80509-7.40362 17.630542-7.40362l0.567935 0c6.825452 0 13.080923 2.852978 18.200524 7.40362l0 0c4.549619 5.127787 7.392364 11.393491 7.392364 18.23634l0 54.655807 470.406696 0L746.89738 88.571245l0 0 0 0 0 0c0-6.843872 2.835581-13.109576 7.384178-18.23634 4.549619-4.550643 10.8143-7.40362 18.199501-7.40362l0 0c6.824429 0 13.648858 2.852978 18.198477 7.40362l0 0c4.548596 5.127787 7.40362 11.393491 7.40362 18.23634L798.083156 143.227052z"/>
</svg>
