<svg fill="#757575" xmlns="http://www.w3.org/2000/svg"  width="1024" height="1024" viewBox="0 0 1024 1024">
  <path d="M513.559007 60.225663c-248.296039 0-449.587532 201.299679-449.587532 449.625394 0 248.296039 201.292516 449.594695 449.587532 449.594695 248.27762 0 449.63358-201.299679 449.63358-449.594695C963.192587 261.525342 761.836627 60.225663 513.559007 60.225663zM513.678734 917.673369c-225.170343 0-407.704632-182.53736-407.704632-407.707702 0-225.169319 182.53429-407.710772 407.704632-407.710772 225.165226 0 407.695423 182.541453 407.695423 407.710772C921.37518 735.13601 738.844983 917.673369 513.678734 917.673369z" />
<path d="M513.58152 755.605204c25.722848 0 46.558385-20.844747 46.558385-46.557362 0-25.718755-20.835538-46.560432-46.558385-46.560432-25.721825 0-46.560432 20.841677-46.560432 46.560432C467.021088 734.760456 487.859695 755.605204 513.58152 755.605204z" />
<path d="M550.458405 559.915289l0 45.827745c0 6.998391-2.508123 13.121855-7.523347 18.367323s-14.286378 8.281617-27.813462 9.097192c-13.529131 0.818645-23.617907-1.692548-30.259164-7.519254-6.65149-5.829775-9.974166-14.461363-9.974166-25.894763l0-41.277102c0-25.894763 3.500731-45.014216 10.499122-57.376779 6.992251-12.363585 13.68979-21.225417 20.120246-26.589588 6.405897-5.368264 15.505136-12.771885 27.27725-22.218024 11.786441-9.44614 22.055318-19.706831 30.791284-30.786167 8.750291-11.075243 12.649088-22.445198 11.726066-34.111912-1.407046-12.824073-8.987698-24.078395-22.738887-33.762965-13.766538-9.677407-28.92989-14.978133-45.486984-15.916505-19.35993-0.930185-35.335786 2.451842-47.932686 10.146081-12.593829 7.697309-21.571295 15.919575-26.931373 24.665773-5.372358 8.746198-9.334599 19.301602-11.897981 31.66007-2.570545 12.366655-5.249561 20.816095-8.04728 25.361621-2.797719 4.550643-7.117095 7.872295-12.94687 9.975189-5.829775 2.097778-11.313673 3.14769-16.440437 3.14769-8.868995 0.234337-16.913205-1.74883-24.14184-5.945409-7.232728-4.196579-11.893888-10.729365-13.992689-19.591197-2.097778-8.861832-1.983167-19.706831 0.349971-32.53909 3.727904-19.35686 8.511861-34.926464 14.34573-46.705742 5.822612-11.775184 13.694907-22.794146 23.609721-33.059953 9.914814-10.264784 21.574365-18.542308 34.986839-24.836665 13.412474-6.302543 26.939559-11.023054 40.582277-14.174837 13.649881-3.14769 27.818579-4.836145 42.513256-5.070482 19.585057-0.227174 37.367049 2.220574 53.350069 7.347339 15.968693 5.130857 29.91124 11.897981 41.802058 20.291139 11.906168 8.397251 21.579481 16.793478 29.05064 25.190729 7.454786 8.397251 14.166651 20.409842 20.11206 36.035728 5.944386 15.625886 8.56405 32.534997 7.872295 50.727335-0.937348 18.423605-5.142114 34.283828-12.597923 47.580668-7.471159 13.292748-20.87954 27.408233-40.240493 42.331108-19.360953 14.930037-31.311123 24.491811-35.849486 28.688389-4.552689 4.199649-8.05035 9.330506-10.499122 15.395642C551.685349 540.443819 550.458405 548.951587 550.458405 559.915289z" />
</svg>
