<svg fill="#757575" xmlns="http://www.w3.org/2000/svg"  width="1024" height="1024" viewBox="0 0 1024 1024">
  <path d="M976.319141 395.645992C860.134334 261.661442 690.533826 184.837752 510.941346 184.837752c-179.533125 0-349.162288 76.794014-465.346071 210.720236-10.747202 12.372795-9.497694 31.165814 2.788624 41.970904 12.286318 10.832719 30.993121 9.55461 41.680969-2.817162 104.973004-121.001865 258.394379-190.389188 420.876478-190.389188 162.513823 0 315.936221 69.416999 420.878524 190.417841 5.837178 6.738471 14.029079 10.194176 22.247588 10.194176 6.88611 0 13.826457-2.409886 19.403704-7.348362C985.758504 426.78213 987.036666 408.019811 976.319141 395.645992zM510.941346 351.729783c-134.86091 0-260.368417 59.542094-344.311617 163.319669-10.282602 12.750395-8.394525 31.485085 4.240755 41.853224 12.692587 10.426467 31.340036 8.422833 41.564308-4.270257 72.673067-89.864704 181.509211-141.41887 298.505532-141.41887 117.056699 0 225.862142 51.554166 298.507579 141.41887 5.838201 7.231705 14.348364 10.979052 22.945512 10.979052 6.535101 0 13.100903-2.177596 18.590142-6.680143 12.663933-10.368138 14.581687-29.101805 4.270432-41.823548C771.370141 411.271878 645.831933 351.729783 510.941346 351.729783zM510.941346 518.592139c-90.099663 0-173.60794 44.090171-223.451134 117.893061-9.178409 13.592576-5.663209 32.095999 7.814286 41.331337 5.112647 3.485381 10.86284 5.140067 16.585403 5.140067 9.46904 0 18.763088-4.558829 24.456997-13.012362 38.835038-57.537438 104.101112-91.867314 174.595471-91.867314 69.479198 0 134.223364 33.576723 173.144363 89.776699 9.352379 13.476943 27.824836 16.759709 41.158038 7.378038 13.39051-9.410324 16.643734-27.942399 7.320009-41.419342C682.546594 561.666166 599.706563 518.592139 510.941346 518.592139zM510.941346 722.052017c-32.559867 0-59.078911 26.25599-59.078911 58.554604s26.519043 58.554604 59.078911 58.554604c32.561914 0 59.079934-26.25599 59.079934-58.554604S543.504284 722.052017 510.941346 722.052017z" />
</svg>
