<svg fill="#757575" xmlns="http://www.w3.org/2000/svg"  width="1024" height="1024" viewBox="0 0 1024 1024">
  <path d="M355.812263 803.177686c11.971659 1.700735 23.943318 2.28095 35.916001 2.28095l0 0c76.402087 0 145.392368-25.682939 194.998159-66.787102 49.607838-40.524972 80.391958-97.030917 80.391958-159.236678l0 0 0 0 0 0 0 0c0-62.22725-30.78412-118.172423-80.391958-159.257144-49.606815-41.084721-118.597095-66.787102-194.998159-66.787102l0 0c-76.400041 0-145.961326 25.702382-195.568141 66.787102-49.606815 41.084721-80.391958 97.029894-80.391958 159.257144l0 0c0 30.242791 6.840802 59.346643 21.092387 86.748736 13.681604 26.822902 34.215266 51.945069 61.008492 73.627904 6.841825 5.720282 11.972683 13.701047 14.821567 21.701255 2.850931 8.56098 2.850931 17.682731 0.571005 26.823925l-13.681604 47.365774 94.082772-36.524868c2.850931-0.579191 5.699816-1.720178 8.550747-2.28095 2.850931-0.579191 5.130857-0.579191 7.981788-0.579191l0 0c1.709945 0 3.419889 0 5.130857 0 1.709945 0.579191 3.419889 0.579191 5.129834 1.139963l0 0C332.429717 800.317545 344.401376 802.038746 355.812263 803.177686L355.812263 803.177686zM160.245146 383.073652c59.288315-50.225915 140.831492-81.048921 231.483118-81.048921l0 0c90.083691 0 171.615613 30.824029 230.924393 81.048921 59.288315 50.245358 96.353488 119.873158 96.353488 196.361203 0 77.047794-37.065174 146.115845-96.353488 196.340737-59.308781 50.225915-140.840702 81.047898-230.924393 81.047898l0 0c-14.252609 0-28.504194-0.558725-42.196031-2.28095-13.111622-1.720178-26.224268-3.419889-38.764885-6.28003l-179.036629 69.067029-10.260691 4.000104 2.850931-11.42112 38.205137-132.413775c-30.794353-25.12319-55.307653-55.364959-72.41017-89.049129-16.542768-33.683147-26.234501-70.206992-26.234501-109.010763C63.881424 502.945787 100.945575 433.317986 160.245146 383.073652L160.245146 383.073652zM863.827509 181.590801c59.867506 50.225915 96.353488 119.853715 96.353488 196.34176 0 38.823214-9.120728 75.908854-26.224268 109.031229-17.102516 33.663704-41.625026 63.926962-71.849398 89.029686l37.643342 132.995013 3.421936 10.840906-10.840906-3.980661-152.22396-58.806337-5.139044-1.700735 1.720178-5.140067c1.699712-6.28003 3.419889-12.56006 4.560876-19.401886l0 0c1.699712-6.281053 2.840698-13.141298 3.419889-19.9821l1.139963-6.840802 6.841825 2.279926 72.41017 27.963888-13.681604-47.365774c-2.860141-9.141194-2.28095-18.280342 0-26.26213l0 0c2.840698-8.559956 7.981788-16.562211 15.383362-22.26305l0 0c26.222221-21.681812 46.766117-46.224788 61.008492-73.627904 13.681604-26.822902 21.10262-56.505945 21.10262-86.769202l0 0 0 0 0 0c0-61.647035-30.78412-118.151957-80.391958-159.236678-50.188053-41.104163-119.17731-66.206888-195.568141-66.206888l0 0c-51.326992 0-99.775424 11.401678-140.840702 31.382754l0 0c-42.756803 21.123087-78.112032 51.365878-102.05535 86.769202l-1.709945 2.840698-2.850931 0c-7.981788 0-15.962553 0.579191-23.943318 1.139963-7.989975 0.579191-15.971763 1.160429-23.953551 2.28095l-10.260691 1.159406 4.560876-9.700943c25.653263-50.245358 67.849294-92.488461 121.447003-122.171504C504.624521 117.084649 566.763766 100.542904 632.914372 100.542904l0 0C722.986807 100.542904 805.099966 131.36591 863.827509 181.590801L863.827509 181.590801z"/>
</svg>
