<svg fill="#757575" xmlns="http://www.w3.org/2000/svg"  width="1024" height="1024" viewBox="0 0 1024 1024"><path d="M998.518477 373.539106 606.691055 7.700309c0 0-9.626601-10.426819-18.518918-7.014151-13.025282 5.010108-9.190027 17.066337-9.190027 17.066337l0 199.232471c-384.624455-46.968141-532.994587 197.72794-564.303018 442.988469-24.048519 188.36608-10.217024 360.766749-10.217024 360.766749 127.372634-562.16011 571.141341-403.101414 571.141341-403.101414l0.074927 199.076623c0 0 2.887181 11.392876 11.967315 15.026328 10.020216 4.010085 18.603835-1.437596 18.603835-1.437596l396.398958-363.177396c12.840463-12.553743 20.85264-25.735872 20.85264-46.622478C1023.501084 400.465815 1010.726557 384.312587 998.518477 373.539106zM936.333194 448.561855 656.790138 707.063455c0 0-6.969195 9.018195-10.974285 7.014151-5.262861-2.60146-2.894174-8.015174-2.894174-8.015174L642.921679 570.798503c0 0-389.871332-148.291209-577.237389 165.318584 0 0 10.998261-224.436861 98.169148-327.637097 86.041989-101.88552 232.940558-158.308429 474.410788-122.239646l1.781261-159.309451c0 0-0.303703-8.234959 2.830237-9.017196 4.007088-1.003021 8.96125 4.007088 8.96125 4.007088l289.570265 277.54101c10.707545 9.424798 13.026281 15.059296 13.965364 26.049565C956.368631 437.539617 945.351389 439.54366 936.333194 448.561855z"/></svg>