<svg fill="#757575" xmlns="http://www.w3.org/2000/svg"  width="1024" height="1024" viewBox="0 0 1024 1024">
  <path d="M985.088 316.705391c-26.000696-62.174609-63.154087-117.693217-111.638261-166.555826-48.283826-48.662261-103.424-85.637565-165.954783-111.437913C645.12 12.889043 579.82887 0 511.421217 0c-68.051478 0-133.12 12.889043-195.494957 38.912-62.575304 26.000696-117.693217 63.131826-165.776696 111.215304C102.221913 197.832348 65.29113 253.150609 39.290435 316.104348 13.111652 379.258435 0 444.349217 0 511.577043c0 59.035826 8.94887 113.975652 26.957913 164.218435 18.009043 50.465391 44.388174 95.410087 79.582609 134.722783 7.212522 8.392348 14.447304 14.825739 21.504 19.144348 7.034435 4.474435 13.690435 6.656 19.745391 6.656 1.936696 0 4.897391-0.601043 8.614957-1.402435 3.895652-0.957217 8.614957-2.515478 14.291478-4.274087-44.588522-56.275478-76.866783-109.278609-96.389565-159.521391-19.767652-50.265043-29.517913-103.424-29.517913-159.543652 0-61.595826 11.931826-120.809739 35.57287-178.064696 23.663304-57.299478 57.477565-107.920696 101.286957-151.885913 44.009739-43.809391 94.408348-77.623652 151.529739-101.286957 57.054609-23.663304 116.513391-35.57287 178.487652-35.57287 62.174609 0 121.58887 11.686957 178.109217 35.172174 56.498087 23.462957 106.74087 57.477565 151.106783 101.665391 43.987478 43.987478 77.824 94.408348 101.64313 151.485217 23.841391 57.09913 35.773217 116.513391 35.773217 178.309565 0 61.19513-11.931826 120.409043-35.773217 177.886609-23.81913 57.477565-57.677913 107.920696-101.64313 151.507478-44.009739 44.009739-94.430609 77.801739-151.707826 101.665391-57.277217 23.841391-116.513391 35.750957-177.508174 35.750957-74.885565 0-134.90087-11.909565-179.867826-35.951304-45.145043-24.064-67.628522-55.718957-67.628522-94.630957 0-8.414609 1.558261-16.62887 4.474435-24.620522 3.138783-8.013913 8.036174-16.406261 15.070609-25.6 6.834087 6.455652 12.911304 11.152696 18.587826 14.269217 5.453913 3.138783 10.351304 4.518957 14.647652 4.518957 6.856348 0 17.207652-5.89913 31.47687-17.630609 14.06887-11.909565 28.16-26.957913 42.22887-45.345391 11.53113-15.60487 21.281391-33.235478 29.495652-52.958609 8.214261-19.567304 12.332522-32.055652 12.332522-37.576348 0-3.272348-4.897391-10.707478-14.447304-22.26087-9.772522-11.553391-14.669913-23.062261-14.669913-34.994087 0-15.62713 4.474435-36.374261 13.467826-61.952 8.993391-25.800348 21.882435-56.498087 39.112348-92.093217 19.945739-40.091826 35.951304-68.229565 48.484174-84.457739 12.310261-16.228174 25.021217-26.579478 38.13287-31.076174 2.938435-1.202087 8.013913-2.181565 14.848-2.960696 22.483478-2.337391 39.312696-12.132174 50.465391-29.139478 10.150957-17.16313 19.122087-39.290435 26.779826-66.270609 7.635478-26.779826 11.50887-49.641739 11.50887-68.429913 0-15.248696-2.337391-25.577739-7.212522-30.875826-4.697043-5.253565-14.647652-8.013913-30.096696-8.013913-24.041739 0-44.388174 1.758609-61.217391 5.097739-16.806957 3.517217-29.495652 8.392348-38.310957 15.048348-10.752 7.635478-27.759304 26.223304-51.222261 56.119652-23.462957 29.718261-47.504696 63.73287-71.94713 101.865739-44.566261 69.787826-81.296696 144.250435-109.879652 223.232-28.738783 79.181913-43.008 138.418087-43.008 178.086957 0 7.835826 1.758609 15.849739 5.097739 24.442435 3.517217 8.637217 9.572174 19.945739 18.365217 34.014609-11.909565 14.870261-20.72487 29.696-26.401391 44.187826-5.654261 14.447304-8.614957 29.117217-8.614957 43.987478 0 49.263304 26.601739 89.510957 79.582609 120.809739C354.415304 1008.350609 424.403478 1024 511.421217 1024c66.871652 0 131.762087-13.111652 195.116522-39.312696 63.154087-26.022957 118.873043-62.953739 166.934261-110.83687 48.105739-48.083478 85.25913-103.624348 111.259826-166.555826C1010.888348 644.34087 1024 579.049739 1024 511.421217 1024 443.770435 1011.110957 378.88 985.088 316.705391zM650.974609 352.478609c10.173217 2.537739 18.18713 3.895652 24.242087 3.895652 15.649391 0 30.72-14.447304 45.367652-43.586783 14.447304-28.93913 21.726609-58.434783 21.726609-88.754087 0-17.385739-4.518957-31.076174-13.712696-40.848696-9.171478-9.750261-28.137739-19.945739-56.676174-30.675478 0 37.13113-5.275826 71.746783-15.426783 104.002783-10.395826 32.233739-25.021217 60.193391-44.187826 83.856696C627.934609 345.622261 640.823652 349.740522 650.974609 352.478609zM454.722783 671.922087c-8.013913 32.456348-21.303652 62.152348-40.292174 89.132522-18.966261 26.802087-42.807652 50.821565-71.92487 71.769043 13.467826 8.793043 25.221565 15.426783 35.59513 20.123826 10.351304 4.496696 18.765913 6.856348 25.221565 6.856348 21.325913 0 43.809391-15.849739 67.428174-47.504696 23.863652-31.677217 35.59513-59.236174 35.59513-82.498783 0-8.815304-3.517217-17.207652-10.573913-25.421913C488.737391 696.119652 475.046957 685.389913 454.722783 671.922087z"/>
</svg>
